<svg viewBox="0 0 843 400" xmlns="http://www.w3.org/2000/svg"><g><g><g><g><g><line x1="30.78125" y1="378" x2="25.78125" y2="378" style="visibility: inherit;" fill="rgb(0, 0, 0)" stroke="rgb(204, 204, 204)" stroke-width="1px"></line><line x1="30.78125" y1="330.75" x2="25.78125" y2="330.75" style="visibility: inherit;" fill="rgb(0, 0, 0)" stroke="rgb(204, 204, 204)" stroke-width="1px"></line><line x1="30.78125" y1="283.5" x2="25.78125" y2="283.5" style="visibility: inherit;" fill="rgb(0, 0, 0)" stroke="rgb(204, 204, 204)" stroke-width="1px"></line><line x1="30.78125" y1="236.25" x2="25.78125" y2="236.25" style="visibility: inherit;" fill="rgb(0, 0, 0)" stroke="rgb(204, 204, 204)" stroke-width="1px"></line><line x1="30.78125" y1="189" x2="25.78125" y2="189" style="visibility: inherit;" fill="rgb(0, 0, 0)" stroke="rgb(204, 204, 204)" stroke-width="1px"></line><line x1="30.78125" y1="141.75" x2="25.78125" y2="141.75" style="visibility: inherit;" fill="rgb(0, 0, 0)" stroke="rgb(204, 204, 204)" stroke-width="1px"></line><line x1="30.78125" y1="94.5" x2="25.78125" y2="94.5" style="visibility: inherit;" fill="rgb(0, 0, 0)" stroke="rgb(204, 204, 204)" stroke-width="1px"></line><line x1="30.78125" y1="47.25" x2="25.78125" y2="47.25" style="visibility: inherit;" fill="rgb(0, 0, 0)" stroke="rgb(204, 204, 204)" stroke-width="1px"></line><line x1="30.78125" y1="0" x2="25.78125" y2="0" style="visibility: inherit;" fill="rgb(0, 0, 0)" stroke="rgb(204, 204, 204)" stroke-width="1px"></line></g><g transform="translate(20.78125, 0)"><text x="0" y="378" dx="0em" dy="0.3em" style="text-anchor: end; visibility: hidden; font-family: Roboto, sans-serif; font-size: 12px; font-weight: 200;" fill="rgb(50, 49, 63)" stroke="none" stroke-width="1px">-5</text><text x="0" y="330.75" dx="0em" dy="0.3em" style="text-anchor: end; visibility: inherit; font-family: Roboto, sans-serif; font-size: 12px; font-weight: 200;" fill="rgb(50, 49, 63)" stroke="none" stroke-width="1px">0</text><text x="0" y="283.5" dx="0em" dy="0.3em" style="text-anchor: end; visibility: inherit; font-family: Roboto, sans-serif; font-size: 12px; font-weight: 200;" fill="rgb(50, 49, 63)" stroke="none" stroke-width="1px">5</text><text x="0" y="236.25" dx="0em" dy="0.3em" style="text-anchor: end; visibility: inherit; font-family: Roboto, sans-serif; font-size: 12px; font-weight: 200;" fill="rgb(50, 49, 63)" stroke="none" stroke-width="1px">10</text><text x="0" y="189" dx="0em" dy="0.3em" style="text-anchor: end; visibility: inherit; font-family: Roboto, sans-serif; font-size: 12px; font-weight: 200;" fill="rgb(50, 49, 63)" stroke="none" stroke-width="1px">15</text><text x="0" y="141.75" dx="0em" dy="0.3em" style="text-anchor: end; visibility: inherit; font-family: Roboto, sans-serif; font-size: 12px; font-weight: 200;" fill="rgb(50, 49, 63)" stroke="none" stroke-width="1px">20</text><text x="0" y="94.5" dx="0em" dy="0.3em" style="text-anchor: end; visibility: inherit; font-family: Roboto, sans-serif; font-size: 12px; font-weight: 200;" fill="rgb(50, 49, 63)" stroke="none" stroke-width="1px">25</text><text x="0" y="47.25" dx="0em" dy="0.3em" style="text-anchor: end; visibility: inherit; font-family: Roboto, sans-serif; font-size: 12px; font-weight: 200;" fill="rgb(50, 49, 63)" stroke="none" stroke-width="1px">30</text><text x="0" y="0" dx="0em" dy="0.3em" style="text-anchor: end; visibility: hidden; font-family: Roboto, sans-serif; font-size: 12px; font-weight: 200;" fill="rgb(50, 49, 63)" stroke="none" stroke-width="1px">35</text></g><line x1="30.78125" y1="0" x2="30.78125" y2="378" fill="rgb(0, 0, 0)" stroke="rgb(204, 204, 204)" stroke-width="1px"></line></g></g><g transform="translate(30, 0)" clip-path="url(#clip_0)"><clipPath id="clip_0"><rect width="812" height="378"></rect></clipPath><g><g><g><line x1="0" y1="0" x2="0" y2="378" fill="rgb(0, 0, 0)" stroke="rgb(60, 60, 60)" stroke-width="1px" opacity="0.25"></line><line x1="58.015625" y1="0" x2="58.015625" y2="378" fill="rgb(0, 0, 0)" stroke="rgb(60, 60, 60)" stroke-width="1px" opacity="0.25"></line><line x1="116.03125" y1="0" x2="116.03125" y2="378" fill="rgb(0, 0, 0)" stroke="rgb(60, 60, 60)" stroke-width="1px" opacity="0.25"></line><line x1="174.046875" y1="0" x2="174.046875" y2="378" fill="rgb(0, 0, 0)" stroke="rgb(60, 60, 60)" stroke-width="1px" opacity="0.25"></line><line x1="232.0625" y1="0" x2="232.0625" y2="378" fill="rgb(0, 0, 0)" stroke="rgb(60, 60, 60)" stroke-width="1px" opacity="0.25"></line><line x1="290.078125" y1="0" x2="290.078125" y2="378" fill="rgb(0, 0, 0)" stroke="rgb(60, 60, 60)" stroke-width="1px" opacity="0.25"></line><line x1="348.09375" y1="0" x2="348.09375" y2="378" fill="rgb(0, 0, 0)" stroke="rgb(60, 60, 60)" stroke-width="1px" opacity="0.25"></line><line x1="406.109375" y1="0" x2="406.109375" y2="378" fill="rgb(0, 0, 0)" stroke="rgb(60, 60, 60)" stroke-width="1px" opacity="0.25"></line><line x1="464.125" y1="0" x2="464.125" y2="378" fill="rgb(0, 0, 0)" stroke="rgb(60, 60, 60)" stroke-width="1px" opacity="0.25"></line><line x1="522.140625" y1="0" x2="522.140625" y2="378" fill="rgb(0, 0, 0)" stroke="rgb(60, 60, 60)" stroke-width="1px" opacity="0.25"></line><line x1="580.15625" y1="0" x2="580.15625" y2="378" fill="rgb(0, 0, 0)" stroke="rgb(60, 60, 60)" stroke-width="1px" opacity="0.25"></line><line x1="638.171875" y1="0" x2="638.171875" y2="378" fill="rgb(0, 0, 0)" stroke="rgb(60, 60, 60)" stroke-width="1px" opacity="0.25"></line><line x1="696.1875" y1="0" x2="696.1875" y2="378" fill="rgb(0, 0, 0)" stroke="rgb(60, 60, 60)" stroke-width="1px" opacity="0.25"></line><line x1="754.203125" y1="0" x2="754.203125" y2="378" fill="rgb(0, 0, 0)" stroke="rgb(60, 60, 60)" stroke-width="1px" opacity="0.25"></line><line x1="812.21875" y1="0" x2="812.21875" y2="378" fill="rgb(0, 0, 0)" stroke="rgb(60, 60, 60)" stroke-width="1px" opacity="0.25"></line></g><g><line x1="0" y1="378" x2="812.21875" y2="378" fill="rgb(0, 0, 0)" stroke="rgb(60, 60, 60)" stroke-width="1px" opacity="0.25"></line><line x1="0" y1="330.75" x2="812.21875" y2="330.75" fill="rgb(0, 0, 0)" stroke="rgb(60, 60, 60)" stroke-width="1px" opacity="0.25"></line><line x1="0" y1="283.5" x2="812.21875" y2="283.5" fill="rgb(0, 0, 0)" stroke="rgb(60, 60, 60)" stroke-width="1px" opacity="0.25"></line><line x1="0" y1="236.25" x2="812.21875" y2="236.25" fill="rgb(0, 0, 0)" stroke="rgb(60, 60, 60)" stroke-width="1px" opacity="0.25"></line><line x1="0" y1="189" x2="812.21875" y2="189" fill="rgb(0, 0, 0)" stroke="rgb(60, 60, 60)" stroke-width="1px" opacity="0.25"></line><line x1="0" y1="141.75" x2="812.21875" y2="141.75" fill="rgb(0, 0, 0)" stroke="rgb(60, 60, 60)" stroke-width="1px" opacity="0.25"></line><line x1="0" y1="94.5" x2="812.21875" y2="94.5" fill="rgb(0, 0, 0)" stroke="rgb(60, 60, 60)" stroke-width="1px" opacity="0.25"></line><line x1="0" y1="47.25" x2="812.21875" y2="47.25" fill="rgb(0, 0, 0)" stroke="rgb(60, 60, 60)" stroke-width="1px" opacity="0.25"></line><line x1="0" y1="0" x2="812.21875" y2="0" fill="rgb(0, 0, 0)" stroke="rgb(60, 60, 60)" stroke-width="1px" opacity="0.25"></line></g></g></g><g><g><line x1="0" y1="330.75" x2="812.21875" y2="330.75" fill="rgb(0, 0, 0)" stroke="rgb(153, 153, 153)" stroke-width="1.5px"></line></g></g><g><g><line x1="58.015625" y1="0" x2="58.015625" y2="378" fill="rgb(0, 0, 0)" stroke="rgb(153, 153, 153)" stroke-width="1.5px"></line></g></g><g><g><g><g><g><path stroke="rgb(255, 112, 67)" stroke-width="2px" d="M58.59578125,203.7429051876068L60.104187499999995,181.45039041638373L60.800375,172.76509051322938L62.656875,166.60787244000858L62.888937500000004,162.73314045307785L63.23703125,160.5129136577136L64.16528125,158.23773622389615L64.513375,156.5886079494056L66.25384375,152.9583156270715L66.6019375,150.70637500310326L68.9225625,146.75439857973882L69.85081249999999,142.592390741177L70.19890625,140.32969634899314L70.3149375,139.0412564527227L71.12715625,137.21244150617534L72.63556249999999,134.6616069261648L74.14396875,131.99838004431433L75.42031250000001,130.20397926358038L76.00046875,128.14985813717806L76.3485625,126.85117645196046L77.39284375,125.19449814961679L78.6691875,123.64249911791715L79.24934375,122.89123419940526L79.48140624999999,121.86863280704131L79.5974375,121.51513249848816L80.06156250000001,120.76133979468115L80.9898125,120.24551794847935L81.91806249999999,119.21113204092067L82.03409375000001,118.64294484619379L82.61425,117.79375763337427L83.89059375,116.80484560485681L84.58678125,116.16922754090403L85.1669375,115.40670460183891L86.90740625,114.7002732749209L87.60359375,114.19748184266176L88.18375,113.45960100594525L88.99596875,112.85855299639285L89.46009375,112.36134216128485L89.69215625,111.53671629804649L91.89675,110.71565507527671L92.47690625,109.9773595820495L92.5929375,109.15036067986195L93.17309374999999,109.04339561473448L93.75325,108.36497234339357L93.9853125,108.15971285242594L94.9135625,107.5130984481096L95.02959375,107.42902194117706L96.3059375,107.32467573794608L97.35021875,106.7108805007428L98.27846875,105.65360814968028L100.13496875,104.64136586331395L100.59909375000001,104.23401251878067L101.75940625,103.31128298428925L106.86478125,101.5563520812211L106.98081249999998,99.91188894648556L107.9090625,99.09019962155313L108.95334375,98.35969594480672L109.18540625,97.52828781224528L109.30143749999999,97.65184142361424L109.64953125000001,97.07884556156603L110.34571875000002,96.71576188863642L111.39,96.45267032898263L111.73809374999999,95.75349806378361L111.854125,95.50270350593372L113.01443750000001,95.08308576475413L114.98696875,94.33004089671869L115.21903124999999,93.87822839545314L117.423625,92.39119023398813L117.6556875,91.68500844428694L118.00378125,90.9539249121532L118.93203125000001,90.24653032418398L119.62821875000002,90.59678419945423L119.86028125,90.89284102748503L120.20837499999999,90.59173145670098L120.9045625,90.05167991863726L121.48471875,89.72335917798898L122.64503125,89.24807651906144L123.34121875,88.68262681048469L124.03740625,88.1743453734002L124.50153124999999,87.5636891408492L125.19771874999999,87.6119729831057L125.42978124999999,87.65034483875257L125.77787500000001,87.47904281023399L126.00993749999999,86.94953647257839L126.12596875,86.59716805816865L126.706125,86.55726041436894L126.82215624999999,86.88919046187819L127.86643749999999,86.69845812478317L129.37484375,86.32458207701838L129.955,85.9019226699781L130.1870625,85.35729713378618L131.5794375,84.90773208581369L132.39165625,84.77867024208881L132.5076875,84.41171008745296L132.73975,84.06606944083848L133.08784375000002,83.5098111133556L133.31990625,83.92025659446603L134.71228125000002,83.29094683387689L135.060375,83.07646778141742L135.52450000000002,82.93093109914831L135.87259375,82.60035839551195L136.2206875,82.50153854652346L136.6848125,82.443292054916L136.80084375,82.24426403605017L137.26496875,82.53515568115158L137.845125,82.26013218127397L139.93368750000002,82.51688287474337L140.8619375,81.73642351757063L141.32606249999998,81.02352735120398L141.7901875,80.53989224385225L141.90621875,80.29324381799105L142.7184375,80.16299802571896L143.76271875,80.04841954297041L144.22684375,79.81350149384868L144.69096875,79.14161541504701L145.27112499999998,78.68314872290516L145.73525,78.13972798648969L146.77953125,77.14189007558521L147.24365625,76.91383479760948L147.3596875,75.95265005306517L147.47571875,76.18220866129468L147.70778125,76.16179734948673L147.8238125,76.37156125118375L148.52,76.02204289084698L148.984125,75.46663023737682L149.10015625,75.6199417120672L149.33221875,75.61050865211827L149.912375,75.0335532305165L150.02840625000002,74.92148146376152L150.1444375,74.7972739490577L150.60856249999998,74.48465373711036L151.0726875,74.3404412138239L151.65284375000002,74.41109406636807L151.768875,74.50936876587069L151.88490625,73.9394462946176L154.55362499999998,73.7931157137823L155.01775,73.57515924607941L155.2498125,73.28854601761837L155.82996875,72.65995401132786L158.84678125,71.89132950060772L159.4269375,71.58068053575283L159.659,71.43948204429104L160.3551875,70.80578162617184L161.2834375,70.6300883528393L161.979625,70.25135692100531L162.44375000000002,70.37278291786198L163.25596875000002,69.85334805729674L163.48803125,69.6088822703522L164.18421875,69.06273063784607L164.41628125,68.92783632734879L164.764375,68.74991380965388L165.11246875,68.93459393856332L166.04071875,69.04447195456865L166.15675,69.09773839429883L166.50484375,69.09292118141569L167.3170625,68.5082594608636L167.66515625,67.92276253076618L168.7094375,68.48751711471218L169.1735625,67.70114704861248L169.52165625,67.72657617624999L169.6376875,67.8023381083989L170.68196874999998,67.89379365025663L170.798,67.7293887923879L171.262125,68.02406809751521L171.49418749999998,68.2669172455331L171.61021875,68.39647683200003L172.190375,68.08881390986895L172.53846875000002,67.72817501126556L172.6545,67.29696192204257L173.58275,67.01447785055223L174.046875,66.73085662457697L174.2789375,66.5146855064234L174.62703125,66.14110489058497L175.6713125,66.18956543068887L176.01940625,65.7455721823025L176.94765625,65.77538995549969L178.34003125,65.46791055563622L179.15225,65.4674669144364L180.66065625,66.33011740909885L181.35684375,66.43837256948275L181.7049375,66.20547532391622L181.937,65.08460157008213L182.40112499999998,64.82686304623633L182.86525,64.81015019163333L183.0973125,64.73019484367876L183.67746875,64.24392482094117L183.7935,63.47753592283813L184.83778125,63.783979401298055L185.53396874999999,63.14939871865971L185.99809375,63.81807673119584L186.114125,64.03404271687909L187.2744375,63.52066153100634L187.85459375,63.19113326198763L189.47903125,62.47541539267838L192.03171875,62.051622717357496L192.14775,62.465960278974066L192.611875,61.973686045924474L192.72790625000002,61.52393132359956L192.8439375,60.86741089529504L194.9325,60.81376410309497L196.324875,60.650653672123106L196.44090624999998,60.49003350728993L197.13709375,60.339429459537506L197.36915625,60.820362616518395L197.9493125,60.71559308108046L200.966125,60.55703597865314L201.19818750000002,60.09085050107127L202.3585,60.02857169438056L203.63484375000002,59.2919568975487L203.98293750000002,59.4816582846474L204.33103125,59.64431094216296L206.65165625,59.77586059026115L207.34784375,59.5196294370424L208.1600625,58.90413331408099L208.85625,58.84231103550668L210.0165625,58.71696277792023L210.59671875,58.294610230533834L210.71275000000003,57.48592324281247L211.06084374999998,57.752532262948264L211.98909375,57.524128572551646L212.33718750000003,57.87464758420477L212.68528125,58.10379814067181L213.033375,58.30771936749633L213.14940625000003,58.034442754836206L215.23796875000002,57.061172015816744L216.97843749999998,57.19328470668241L218.71890625,56.3781217029157L219.067,55.95091263356588L219.18303125,55.76645425738559L219.41509374999998,55.82448803294699L219.531125,55.31914453333026L222.0838125,56.41649545565489L222.66396874999998,56.382897113175616L223.0120625,55.79444178963392L223.47618749999998,56.07768195763045L223.70825,56.08764108833561L224.17237500000002,56.454711079698114L224.6365,55.75457446581199L225.100625,55.38285568717764L228.00140624999997,54.79469243147159L228.1174375,55.42228821431512L229.39378125,54.79032754132098L230.32203125,54.62891526716319L230.43806249999997,54.4137338191114L230.78615625,54.32486993013866L231.01821875,53.78358662330539L232.17853125000002,54.236434437056964L232.99075000000002,53.95929878784451L234.73121874999998,53.60994671960614L234.84725,53.54721307265724L235.19534375,53.129999710964896L237.98009374999998,52.47580156913262L238.096125,52.89202509278574L238.3281875,52.847391187873654L239.14040625,52.529105107621646L239.952625,52.91351698913358L240.06865625000003,52.49395751403682L241.11293750000002,52.311284290831736L241.5770625,51.99775900070755L241.809125,51.62863514438201L242.27325,51.457203898518856L243.31753124999997,52.10619520288088L244.12974999999997,51.44866535628663L244.24578125,51.46338885763183L244.8259375,51.76481016241846L245.75418749999997,51.153272312661L246.79846875,50.930739823448675L246.9145,51.088358368556506L247.37862499999997,51.181884077835605L247.95878125,51.169708487777974L248.306875,50.912425716751265L248.5389375,50.72139433385936L248.88703125,50.67007735348946L249.235125,50.48320268498185L249.69925,50.95777355495882L250.6275,50.50831556119799L251.55575000000002,50.70439962266845L252.01987499999998,50.21906029056889L252.36796875000002,50.37845338625535L253.18018750000002,51.0409940745999L254.22446875,51.6084024826628L254.68859375,51.358063912388204L254.80462500000002,50.53648625850467L254.92065624999998,50.58616917514677L255.15271875000002,50.254776265525095L255.5008125,49.83797451633411L256.31303125,50.31053670870178L257.3573125,50.015078395765514L258.517625,49.44039324412432L258.98175,49.06904296093993L259.21381249999996,48.8316041518081L259.56190625,48.941216328670286L260.1420625,48.84755381758787L260.49015625,49.138680148218725L260.6061875,48.74012093072813L260.72221875,48.54446757033876L261.30237500000004,48.90666276571397L262.92681250000004,49.438362245304845L263.97109375,49.07426990303009L264.66728125,49.698377974227775L265.4795,49.825792569753894L265.59553125,49.7894587724432L266.6398125,49.49348506266025L267.45203125,49.10415687164159L268.84440625,48.87723621130277L269.8886875,48.45954920053659L270.35281249999997,49.041810529233054L271.513125,48.52013964700763L271.62915625,48.036863794613254L271.97724999999997,47.9662053052714L272.55740625,47.877451340206335L273.02153125,47.31693341246117L274.5299375,47.44493955797472L274.87803125,47.60009911076143L275.57421875,47.934138407802074L275.69025,47.41248831659287L275.80628125,47.53997963851523L279.75134375,47.79320771566531L280.44753125,47.7354914323777L281.25975,47.13704982616244L281.9559375,46.47996869574627L282.4200625,46.465098527018036L282.65212499999996,46.635454761352435L282.8841875,46.90786972723381L283.580375,46.69639583994137L283.92846875000004,46.10429338317625L284.16053125,45.972888301023914L284.508625,45.98527057064122L284.85671874999997,45.69192963059274L286.24909375,45.82681068668084L286.48115624999997,45.6168464141447L287.87353125,45.99993584378713L287.98956250000003,45.627448612595515L288.10559374999997,45.98415593513547L289.73003124999997,46.08384046202126L290.19415625,46.59628824022545L290.65828125,46.230486223859366L291.12240625,45.846896051027024L291.58653125,45.50202717224221L292.05065625000003,45.07752195977844L292.97890625,44.93401523580356L293.21096875,44.99289983362085L293.5590625,45.53242477566073L293.90715625,45.60439592832374L294.25525,45.35378017326619L294.83540625,45.0969295114304L297.04,45.13188111841837L298.432375,45.486116853118844L298.54840624999997,45.94125289843138L298.8965,45.19366790727167L299.01253125,44.84073298618432L299.24459375000004,44.6617332640006L299.47665625,44.347448855800295L299.94078125,44.50778819928341L300.40490625,44.65210265284641L300.98506249999997,44.867674250399226L301.21712499999995,45.05699535071561L302.02934374999995,44.85797204410857L302.95759375,44.575436836694635L303.42171874999997,44.187214311489434L304.23393749999997,45.06247411759436L304.34996875,45.32540317172845L306.0904375,45.17351506587891L306.43853125,45.19592178366794L306.786625,45.45511830152399L306.90265625,45.87023147285777L307.36678125000003,46.37176416600229L307.59884375,45.67451888015558L308.17900000000003,45.171117959563055L309.10724999999996,45.472016707744714L309.22328125,45.95037024956134L309.68740625,45.653116398699254L309.91946874999996,45.66619810917804L310.15153125,45.49355755721827L310.61565625000003,45.490845227690315L311.77596875,45.05482150581587L312.00803125,44.6949812595076L312.24009375,44.42761371755757L312.356125,44.70634076013656L312.82025,44.323817006435924L313.16834375,44.008751530460664L314.09659375,44.017880198366754L314.56071875,43.99946419537505L316.18515625,43.87312303626798L316.64928125,43.66615806248341L316.88134375,43.86584229842758L317.4615,44.13789450869521L317.57753125,44.3978017458055L317.80959375000003,43.902905023618544L318.1576875,44.21872600825073L318.38975,43.45138735360762L318.62181250000003,43.471905181329575L318.73784374999997,43.59792128415175L319.55006249999997,44.21853968150178L319.89815625,44.55250423340058L320.4783125,44.46015156500375L322.68290625000003,44.20973710294268L323.84321875,43.92192586467088L324.53940625,43.23614086273567L324.88750000000005,42.873343071718544L325.23559374999996,42.473934737074124L325.5836875,42.51590365840661L325.69971875000005,42.806996037207014L325.81575,42.81915028193114L327.09209375,43.55772338449076L327.208125,44.0551280339903L327.4401875,43.90220989229356L328.94859375000004,43.55710020448014L330.10890625,43.75392614594248L331.1531875,42.90490211243122L333.12571875,42.33654054876975L335.21428125,44.00380001590735L335.3303125,44.29718651131441L335.562375,44.21859068486487L336.490625,43.764426810821234L336.7226875,43.982424091863884L337.18681250000003,43.45531581376088L338.347125,43.281573735082716L339.275375,43.28708293581283L339.39140625,42.80218556013273L340.66775,43.01741679720022L341.596,42.96805585987529L342.2921875,43.446663746638094L342.40821875,43.27605084502876L342.64028125,43.06154221966371L342.87234375,43.373094917979856L343.45250000000004,43.26811705210623L346.35328125,42.945801833741825L346.4693125,42.42127481667579L347.629625,43.670164754202204L347.86168749999996,43.754108320599954L348.32581250000004,44.10027722533114L348.44184375,43.11092473516209L349.7181875,44.23947682290876L350.06628125,44.70524622863294L350.76246875000004,44.195028115902915L351.342625,43.885775414463666L351.57468750000004,42.984206337545416L351.80675,42.822052199133715L352.0388125,42.632395252280496L353.54721875,41.99641850512808L354.01134375,41.62078052354804L354.24340625,41.49565690513222L354.5915,41.482745438550545L355.63578125,41.9618460164872L355.7518125,41.68686438479467L356.912125,41.60653261708288L357.1441875,41.59477898339674L358.5365625,43.04827638662003L358.65259375,43.8484933435687L358.768625,43.835719846473275L359.23275,44.30728247093327L359.696875,44.959403929276284L360.3930625,44.30617466042225L362.36559374999996,43.72428829234704L362.7136875,43.19770220972218L363.06178125,42.27284877334313L363.17781249999996,42.10610394021438L364.1060625,41.94061388695579L364.80224999999996,41.821990440632945L365.4984375,41.56977885147693L366.07859375000004,42.55128823984122L368.2831875,42.32264832537449L368.7473125,42.23275330949472L368.979375,42.06992702536962L369.55953125,42.54637470277063L370.13968750000004,42.43536666889135L371.64809375,41.83709120189637L372.4603125,42.62878483435808L374.20078125,43.56657502353962L375.477125,43.80235060036648L375.59315625,42.96260844219005L375.94125,43.38036020844147L376.6374375,44.17772151141739L377.44965625,50.09089045232165L377.5656875,52.08491886917129L377.68171875,53.84129773416147L377.79775,54.23991486333617L377.91378125,55.18866426529174L378.9580625,51.886068546662834L381.62678125,48.413392074042605L381.74281249999996,46.241603397806934L381.85884375,45.19906272380377L382.6710625,44.38953757935063L383.94740625,43.013530286868196L384.17946874999996,42.587902756166336L385.57184374999997,41.72470591761579L385.687875,41.776331424104654L386.03596875,41.51601007425039L386.26803125000004,41.22454741265323L386.38406249999997,41.09917936006751L386.616125,40.79677842902878L388.82071874999997,41.30916363029326L389.74896875,41.33023679511931L390.0970625,41.383608728988094L391.14134375000003,41.78440481563994L391.25737499999997,41.699123075846316L392.185625,41.878746230151414L392.30165625,41.66506496831544L392.99784375,41.19623025753953L393.3459375,41.6981492263011L394.042125,43.19882018458438L394.2741875,43.522685665438125L394.50625,43.5763782373366L396.47878125,43.261680900531836L396.71084375,43.23615675656667L396.826875,42.40101843290729L396.94290625,42.312659170706276L398.21925,41.953617383527295L399.3795625,42.42226324170087L400.3078125,42.20453413062845L402.28034375,42.53512057145565L403.0925625,43.13055815982896L403.20859375000003,43.2724141805654L403.55668749999995,43.04559675510437L405.4131875,43.63605724129502L405.8773125,42.68534932585616L406.45746875000003,42.176200478387145L406.68953124999996,42.11244781083607L406.92159375,41.687218594948924L407.15365625000004,41.39136024022134L407.38571874999997,42.11588216128362L407.84984375,41.92408724965106L407.96587500000004,41.88472738946353L409.24221875,42.01412458828013L409.59031250000004,41.783955862587206L410.51856250000003,41.91060487894153L410.86665625,41.620806210445956L410.9826875,42.17680886817434L411.9109375,42.25529247422487L413.65140625,42.56393895804569L413.88346875,42.25813376819895L414.11553125000006,42.50529789397601L414.34759375,42.26089419048711L415.62393749999995,42.173119804392364L416.0880625,42.12126266785273L417.59646875,42.14633418457397L420.2651875,42.51844855151589L422.00565625,43.55668882848031L422.12168749999995,44.22002217007399L422.817875,43.71822027225926L422.93390624999995,43.40420479213974L423.16596875,44.0882651390778L423.5140625,43.60172567737975L424.09421875,43.323305914240386L424.55834375,43.106910336874286L424.79040625,43.287345779456146L426.64690625,45.207698185752314L427.92324999999994,45.87313426942253L428.73546874999994,44.866409934822485L428.85150000000004,44.94421123341548L429.66371875000004,45.61850317284955L430.0118125,46.28674712160524L432.79656249999994,45.20361840235775L433.14465624999997,45.315540716097274L433.95687499999997,44.96159261050552L434.30496875,44.94424823750692L434.42099999999994,45.07305521386647L434.6530625,45.47997765194048L434.76909374999997,44.84762400418917L435.58131249999997,45.72098281163215L437.08971875,45.512686542142845L437.669875,44.54944954125251L438.71415625000003,44.37503139619927L438.94621875,44.36490790632307L439.17828125,44.00280777327379L439.9905,44.826956842614244L441.49890625,45.099760035439104L441.73096875,45.51945395217164L442.42715625,44.905087593470924L443.35540625,44.024104916617205L444.05159375,43.949291517475224L444.167625,43.76387769826588L444.74778125,43.9679778793355L445.32793749999996,43.85777124755979L446.14015624999996,44.76765652294991L447.06840624999995,44.291983798718725L447.53253125000003,43.91919044707795L447.99665625,44.19456083807103L449.50506249999995,43.93226487656082L449.737125,43.51579672348291L449.96918750000003,43.5998511114823L450.31728124999995,43.70758705849096L450.8974375,43.713346371142L452.86996875000006,44.57365521495815L453.450125,44.528804449470435L455.5386875,45.488523247380044L456.00281249999995,44.66869294317901L456.35090625,43.92361620230881L456.93106250000005,43.714975881358434L457.74328125000005,44.92305985437652L458.20740625,45.62964066116109L458.43946874999995,45.87601952700672L459.13565625,45.62867892354045L459.25168749999995,45.302070482786355L459.947875,44.86880279077047L460.76009375,45.23232934291932L461.45628125,45.152479575966396L461.80437500000005,45.76282243185914L462.5005625,45.2185557714324L463.77690624999997,45.69398262210015L464.00896875,45.72469752614096L465.16928125000004,46.100897273924325L465.517375,46.2899481925406L465.7494375,46.475714444699186L466.32959375,46.11255452131173L468.18609375,45.34252657112444L468.41815625000004,45.130732350450515L469.11434375000005,45.430597231925546L469.57846875,47.69674468406498L469.81053125,48.527249882033274L471.43496875,47.47314363802125L472.82734375,46.77394618800073L473.40749999999997,46.70372703439462L474.799875,46.362245566645065L474.91590625000003,45.960947918295204L475.61209375,45.96527293646296L475.72812500000003,45.99028314664342L477.35256250000003,46.23034248777856L477.8166875,46.70475174205678L478.04875,46.97163240204564L478.2808125,47.77018662506526L478.62890625,47.25728977807873L478.97700000000003,46.4360136144669L480.02128124999996,46.963604514200156L480.71746875,46.93654104256553L480.94953125000006,46.73166633238738L482.22587500000003,47.46532800072644L482.34190625,47.015780739034525L483.03809375000003,47.31354841473414L483.85031250000003,47.2303498892946L486.63506249999995,47.62026327067398L487.33124999999995,49.467420718752024L487.5633125,49.2336727223889L489.99996875000005,49.222269864207234L490.3480625,48.49879786212789L490.81218750000005,47.88702968620986L490.92821875,47.204944748066225L491.04425,47.148799864281656L491.7404375,48.041518916982064L492.08853125,49.14849640267942L492.32059374999994,48.75937040172726L493.364875,48.6795784254236L494.17709375,49.22457769032497L494.75724999999994,48.36448732922183L495.68550000000005,47.30563777869767L496.149625,47.26716066709649L496.61375,47.51901206798247L498.12215625000005,48.35611163989842L498.35421875,48.11997477660262L498.7023125,48.04054909020473L500.0946875,48.37082302254322L500.55881250000004,48.48332801152396L501.13896875,48.71926583462431L501.37103125000004,49.24388402470041L502.53134374999996,48.42590511422209L502.76340625,48.26539048064267L502.99546875000004,48.2265940982611L504.503875,48.32859336844152L506.36037500000003,49.21290442652149L506.94053125,48.31751957241678L507.75275,48.92280052366243L510.65353124999996,48.798826035632985L510.7695625,48.66695778416056L510.88559375,49.42428641823804L511.6978125,49.27764046971722L512.858125,49.382391891388494L513.786375,48.95036359400052L514.59859375,48.94640158993303L515.0627187499999,49.198154636515945L516.3390625,49.138104169543894L517.03525,49.27031405507105L517.7314375,49.86443975292791L518.0795312500001,50.056496188182486L519.82,51.17887112446958L520.284125,51.34728719799716L521.56046875,50.75245629554393L522.140625,49.90192589524629L522.72078125,50.308078564186275L523.18490625,50.1805242854234L523.3009374999999,50.45569910036784L524.57728125,50.710753177566836L524.6933125,51.24839122233602L525.96965625,50.513926891909904L526.20171875,50.897152865187394L526.31775,50.85221566930776L527.12996875,50.47219053134536L527.36203125,50.859883265645585L527.4780625000001,50.53695668515635L527.59409375,50.97460424028078L527.710125,50.581629304422414L528.4063125,50.91036994715538L530.959,50.75305908834938L532.93153125,50.79112340161801L533.5116875,50.613068740067526L533.62771875,50.63475744277102L533.85978125,50.63705693453467L534.78803125,50.96991337519835L536.18040625,50.516832325350926L541.51784375,51.62564894049863L543.14228125,51.04781459623278L543.2583125,51.08721922191205L544.53465625,51.37233900995383L544.6506875,51.16124218923646L544.88275,51.52572858227968L545.1148125,51.47398165162613L545.4629062500001,51.3634240633024L545.5789375,51.69545857463914L545.811,52.08029501172681L548.47971875,52.31131223042476L549.059875,52.650729293821264L549.40796875,52.91906565856817L549.7560625,53.203354678344L550.3362187500001,53.52498735534626L551.6125625,53.39288528887911L552.65684375,52.77879551964097L553.0049375,52.69685822914297L553.1209687500001,52.733715714158144L554.16525,52.511858533109155L554.8614375,52.39524019615947L556.7179375,53.3642270186966L557.414125,53.31409304257783L557.87825,53.967982650497895L558.92253125,53.903295808255294L559.15459375,53.53220667196489L560.198875,53.54251553149926L560.663,54.054142322134375L561.3591875000001,53.57396927236998L561.93934375,53.71024738526038L562.63553125,53.932633759830516L563.6798124999999,54.97165693894275L564.49203125,54.97169182571913L564.95615625,54.54778503103946L566.0004375,54.083960859321955L567.74090625,54.646787877287466L568.5531249999999,54.92771429741745L568.90121875,55.15293900325515L569.13328125,54.865854817358326L569.2493125,56.097405727939424L569.7134374999999,55.92335489764013L569.82946875,56.45347136601332L571.3378749999999,55.79871150460555L572.0340625,55.15110529784393L572.15009375,55.05401847198029L572.38215625,54.949054225888354L573.0783437499999,55.19040040052327L573.4264375,54.973111433246046L576.55928125,55.067091919456914L577.25546875,55.06924105255307L577.7195937500001,55.540189879944954L578.0676875,55.53514671910469L578.9959375,56.09993408553994L579.2280000000001,57.352580957610606L580.73640625,56.40940986454441L581.2005312499999,57.07987596023051L581.3165625,56.41936226742248L583.52115625,56.33707592521182L583.6371875,56.0632997848634L583.98528125,55.82166597473886L584.7975,55.93101060168897L585.0295625,55.96185903893091L585.9578125,56.455189649737896L586.189875,56.69518967180075L586.30590625,56.3965381652631L587.8143125,56.630849649340924L588.046375,57.100858498710984L589.2066875,59.50948150700247L589.55478125,58.49961060372539L590.831125,57.931820576712745L591.17921875,57.59545800764875L591.41128125,57.42602678823179L591.64334375,56.345071143434716L593.03571875,56.62980349691285L595.00825,57.67053865332349L596.7487187500001,57.41651157700393L597.44490625,57.42060518838979L598.257125,57.666730216610546L598.9533125,58.341937467734866L599.185375,58.42730817155895L599.6495,57.70700505826977L600.46171875,58.200573083484876L600.57775,58.261740029290124L600.69378125,58.29926932122396L601.85409375,58.567085167563526L604.29075,58.43268567848001L604.87090625,58.48866406516906L605.4510625,58.77290623329087L606.14725,59.06665221775771L607.3075624999999,59.5665034766507L607.88771875,59.601627931327336L608.58390625,59.490403180915564L609.04803125,59.12287639951618L609.1640625,59.08546705827657L610.0923124999999,59.2956088863942L610.44040625,59.06103926677303L610.5564375,59.19674921619174L610.7885,58.774341491384966L611.13659375,58.87484647960879L611.252625,59.15054158527506L611.36865625,59.191683708184016L612.180875,59.067645684810344L612.52896875,59.59097113128412L612.6450000000001,60.46510845849457L612.76103125,61.19928724306548L612.8770625,61.23889481745792L613.1091250000001,61.02024500204702L613.45721875,61.43443875690451L613.57325,61.9984765170821L614.2694375000001,59.930484416413826L614.9656249999999,59.29828813214818L615.1976875,59.390504251359175L615.54578125,59.09054328110113L617.86640625,59.248546664156336L618.09846875,59.32089744582043L618.79465625,59.980354591454635L619.6068750000001,60.163448579457715L620.99925,60.22833758792123L622.50765625,60.312591656451495L623.2038437499999,59.82850302243533L623.43590625,60.13080172648606L625.29240625,60.52936108655081L625.6405,61.26573345033139L625.8725625,61.01392577271351L625.98859375,62.40718278754168L628.1931875,62.41781930845027L629.23746875,61.48747804594662L630.9779374999999,61.62020071764367L631.3260312499999,61.84712287199245L632.8344375,61.72945593602505L633.7626875,62.58503104452521L634.6909375,62.56150721314092L634.80696875,62.403211777225394L635.1550625,62.237203784474865L635.387125,61.93080093126841L635.5031562500001,61.927448797591595L637.1275937500001,61.84502686522485L638.05584375,62.60296067632489L639.7963125,62.248690163119164L640.6085312499999,62.630213548555105L641.30471875,62.44157329667452L641.6528125,63.03169576328306L642.46503125,62.81100575447865L643.9734374999999,62.81613989067549L644.2055,62.635515233233406L644.32153125,62.62506364128281L644.4375625,62.600090522416224L645.13375,62.938688575534655L647.2223124999999,63.17328203875344L649.0788125,64.0379286501319L649.89103125,62.994588473648484L650.4711874999999,63.63356151772184L650.58721875,63.374676705554975L651.28340625,63.576352387163546L652.3276875,63.08131111949297L652.7918125,64.58456788354883L653.0238750000001,64.29584155257805L653.7200624999999,64.19900055990375L654.06815625,64.0009541765795L656.736875,64.40251369094524L657.31703125,64.35743030319021L658.8254375,64.56555601364019L659.2895625,64.26909202340629L659.63765625,64.28310186626545L661.378125,63.94615220404883L662.306375,64.2476286469532L662.7705,64.77785708776908L662.8865312500001,65.71240852756378L664.97509375,65.36018685390405L665.3231875,64.93502625876575L665.43921875,65.29108113917054L665.67128125,65.37581765933244L665.90334375,65.2682319133485L666.019375,65.61809849554328L666.4835,65.5926336182L666.59953125,65.7218746884371L667.875875,65.58807190321123L668.5720625,65.01428814925092L669.0361875,65.41486725447974L671.70490625,65.48791903280262L673.2133125,65.93076083435437L674.1415625,66.85990967138905L674.83775,66.14795897116835L675.0698125,66.07362786835779L675.18584375,65.95005330029929L676.34615625,66.2531529747475L676.4621875,66.46587062853743L678.20265625,66.17459870921473L678.55075,66.26553750006495L679.82709375,67.05197974186026L679.943125,67.85710985744527L680.29121875,67.90297978928403L681.45153125,67.56493717319202L682.26375,67.06232183150311L682.7278749999999,67.03290011031542L683.192,66.72389995541045L684.2362812499999,66.92373271158854L684.8164375,67.21542695147704L685.0485,67.70803420891113L685.2805625,68.55066208571041L686.32484375,68.1195588954082L686.9050000000001,66.71769297884654L687.48515625,66.77115545253005L689.10959375,67.76390699374701L689.2256249999999,68.68117889778631L689.4576875,68.11272150645742L690.03784375,67.63177738171868L691.082125,67.47853843678267L691.7783125000001,67.62256388848563L693.28671875,67.28739461055719L694.331,67.73453858823366L694.5630625,67.3529860695052L695.0271875000001,67.6515291142373L695.14321875,67.93133227872303L695.60734375,67.56134312181143L696.30353125,68.56819858091158L696.9997187499999,68.55454204283407L697.579875,68.59523041368874L697.92796875,68.24280276847688L698.16003125,69.08330323548795L699.436375,69.77489191443736L699.9005000000001,69.3943759140433L700.94478125,69.13267062288882L701.40890625,68.69927503456088L701.8730312499999,68.52205639952076L702.4531875,68.55781552001031L703.03334375,68.51471464159603L703.8455625,68.93270966722076L704.42571875,69.06787626572546L704.65778125,68.63690175430834L704.8898437500001,69.34992112765826L705.005875,70.31960523396802L706.05015625,69.47240889233393L706.1661875,69.70202626801753L706.28221875,69.12596380005616L706.97840625,69.4310736566206L708.3707812499999,69.17662862237813L708.9509375,69.54569717464761L709.8791875,69.23422036777687L710.11125,68.93289348012661L711.2715625,69.63267077282937L711.503625,69.87789470002575L713.2440937499999,69.98505083826498L714.5204375,70.15936573092523L714.7525,70.26146729316945L715.216625,70.12967921928546L715.4486875,70.08620104811182L716.609,69.93369790090074L716.95709375,70.0778259716806L717.8853437500001,70.70684580578667L719.39375,70.49638684138218L719.6258125,70.38188502993918L720.90215625,70.11154087666715L721.714375,70.1084253423455L722.06246875,70.26880486208451L722.52659375,71.0504373133078L724.15103125,70.92933972715703L725.427375,70.86048072838408L726.23959375,70.65906500258225L727.0518125,70.97350590371L728.212125,70.49266326512637L728.56021875,70.59691032937606L729.02434375,70.80095045787957L729.140375,71.24896089209834L729.72053125,71.73627388938493L730.41671875,72.02361484327453L730.64878125,71.67636025880896L731.80909375,71.22903942188692L731.925125,70.86313467455545L733.89765625,70.82488168974308L734.24575,70.97993931352845L734.82590625,71.70628798234314L735.05796875,72.22002046244054L736.21828125,72.22001310906832L736.45034375,72.3444783015372L737.84271875,72.48408867617378L738.1908125,72.33988893568468L738.422875,72.7407428630588L739.23509375,72.62555362036214L740.3954062500001,73.87850424558152L741.32365625,73.47683273381134L741.55571875,72.79016461984L741.78778125,72.78243041405484L742.1358749999999,72.0156731150711L742.3679375,72.93620467318082L743.41221875,72.36878022273177L744.57253125,72.51634099435685L744.6885625,73.11096781225135L745.6168125,73.49563132364231L745.848875,73.53746115349934L746.313,73.31789524068358L746.42903125,73.16376212304785L746.66109375,73.26032262722227L748.633625,73.55971438932163L749.21378125,73.58510345964278L749.44584375,74.13859007566361L749.561875,73.93714406615013L749.90996875,73.6484616716237L750.95425,73.72062260386531L753.0428125,73.81569978759993L754.08709375,73.93040269116347" style="fill: none;" fill="none"></path></g></g></g></g><g opacity="0.2"><g><g><g><path stroke="rgb(255, 112, 67)" stroke-width="2px" d="M58.59578125,203.7429051876068L60.104187499999995,168.0748815536499L60.800375,164.42720260620118L62.656875,159.36698398590087L62.888937500000004,157.67429037094118L63.23703125,157.4415407180786L64.16528125,154.98419609069825L64.513375,154.1841630935669L66.25384375,147.60433959960938L66.6019375,147.36250562667848L68.9225625,140.86227807998657L69.85081249999999,136.3720284461975L70.19890625,136.94304285049438L70.3149375,137.1111207962036L71.12715625,134.47136878967285L72.63556249999999,130.83715410232546L74.14396875,128.0046667098999L75.42031250000001,127.51283369064329L76.00046875,125.0689893722534L76.3485625,124.90327262878418L77.39284375,122.70957155227661L78.6691875,121.31455163955688L79.24934375,121.76435165405273L79.48140624999999,120.33474283218384L79.5974375,120.98488454818725L80.06156250000001,119.63065395355223L80.9898125,119.47178649902344L81.91806249999999,117.65955476760864L82.03409375000001,117.79066457748415L82.61425,116.51997728347779L83.89059375,115.32147789001465L84.58678125,115.21580057144165L85.1669375,114.26292028427126L86.90740625,113.64062633514406L87.60359375,113.44329471588135L88.18375,112.35277976989748L88.99596875,111.95698099136352L89.46009375,111.61552591323853L89.69215625,110.29977750778198L91.89675,109.48406324386595L92.47690625,108.86991634368898L92.5929375,107.90986232757568L93.17309374999999,108.88294801712034L93.75325,107.34733743667603L93.9853125,107.85182361602783L94.9135625,106.54317684173584L95.02959375,107.30290718078614L96.3059375,107.16815643310547L97.35021875,105.7901876449585L98.27846875,104.06769962310791L100.13496875,103.12300243377688L100.59909375000001,103.62298250198364L101.75940625,101.92718868255615L106.86478125,98.92395572662353L106.98081249999998,97.44519424438477L107.9090625,97.85766563415525L108.95334375,97.26394042968748L109.18540625,96.28117561340332L109.30143749999999,97.83717184066772L109.64953125000001,96.21935176849365L110.34571875000002,96.17113637924194L111.39,96.05803298950195L111.73809374999999,94.70473966598509L111.854125,95.12651166915892L113.01443750000001,94.4536591529846L114.98696875,93.20047359466552L115.21903124999999,93.20050964355467L117.423625,90.16063299179079L117.6556875,90.62573575973511L118.00378125,89.85729961395263L118.93203125000001,89.18543844223022L119.62821875000002,91.12216501235962L119.86028125,91.33692626953125L120.20837499999999,90.1400671005249L120.9045625,89.24160261154175L121.48471875,89.2308780670166L122.64503125,88.53515253067015L123.34121875,87.83445224761961L124.03740625,87.41192321777343L124.50153124999999,86.64770479202271L125.19771874999999,87.68439874649046L125.42978124999999,87.7079026222229L125.77787500000001,87.22208976745605L126.00993749999999,86.15527696609497L126.12596875,86.06861543655396L126.706125,86.49739894866941L126.82215624999999,87.38708553314207L127.86643749999999,86.41235961914064L129.37484375,85.76376800537109L129.955,85.26793355941773L130.1870625,84.54035882949829L131.5794375,84.233384513855L132.39165625,84.58507747650147L132.5076875,83.86126985549929L132.73975,83.54760847091673L133.08784375000002,82.67542362213135L133.31990625,84.53592481613161L134.71228125000002,82.34698219299317L135.060375,82.75474920272829L135.52450000000002,82.71262607574461L135.87259375,82.10449934005737L136.2206875,82.35330877304075L136.6848125,82.35592231750486L136.80084375,81.94572200775148L137.26496875,82.97149314880373L137.845125,81.84759693145752L139.93368750000002,82.90200891494753L140.8619375,80.5657344818115L141.32606249999998,79.95418310165405L141.7901875,79.8144395828247L141.90621875,79.92327117919922L142.7184375,79.96762933731081L143.76271875,79.87655181884766L144.22684375,79.46112442016602L144.69096875,78.13378629684446L145.27112499999998,77.99544868469236L145.73525,77.32459688186646L146.77953125,75.64513320922852L147.24365625,76.57175188064575L147.3596875,74.51087293624876L147.47571875,76.5265465736389L147.70778125,76.13118038177488L147.8238125,76.68620710372925L148.52,75.4977653503418L148.984125,74.63351125717163L149.10015625,75.84990892410276L149.33221875,75.59635906219482L149.912375,74.16812009811402L150.02840625000002,74.75337381362915L150.1444375,74.61096267700195L150.60856249999998,74.01572341918946L151.0726875,74.12412242889404L151.65284375000002,74.51707334518433L151.768875,74.65678081512449L151.88490625,73.08456258773803L154.55362499999998,73.5736198425293L155.01775,73.24822454452514L155.2498125,72.85862617492675L155.82996875,71.71706600189209L158.84678125,70.73839273452761L159.4269375,71.11470708847044L159.659,71.22768430709839L160.3551875,69.85523099899292L161.2834375,70.3665484428406L161.979625,69.68325977325439L162.44375000000002,70.55492191314697L163.25596875000002,69.074195766449L163.48803125,69.24218358993532L164.18421875,68.2435031890869L164.41628125,68.72549486160278L164.764375,68.48303003311158L165.11246875,69.21161413192749L166.04071875,69.20928897857668L166.15675,69.17763805389404L166.50484375,69.08569536209104L167.3170625,67.6312668800354L167.66515625,67.0445171356201L168.7094375,69.33464899063112L169.1735625,66.52159194946289L169.52165625,67.76471986770632L169.6376875,67.91598100662232L170.68196874999998,68.03097696304322L170.798,67.4827815055847L171.262125,68.4660870552063L171.49418749999998,68.63119096755982L171.61021875,68.59081621170044L172.190375,67.62731952667237L172.53846875000002,67.18721666336062L172.6545,66.65014228820799L173.58275,66.59075174331663L174.046875,66.305424785614L174.2789375,66.1904288291931L174.62703125,65.5807339668274L175.6713125,66.2622562408447L176.01940625,65.07958230972288L176.94765625,65.82011661529539L178.34003125,65.00669145584106L179.15225,65.46680145263672L180.66065625,67.62409315109251L181.35684375,66.60075531005857L181.7049375,65.8561294555664L181.937,63.403290939331065L182.40112499999998,64.44025526046751L182.86525,64.785080909729L183.0973125,64.61026182174685L183.67746875,63.5145197868347L183.7935,62.327952575683604L184.83778125,64.24364461898806L185.53396874999999,62.19752769470214L185.99809375,64.82109375L186.114125,64.35799169540405L187.2744375,62.750589752197286L187.85459375,62.69684085845945L189.47903125,61.40183858871459L192.03171875,61.4159337043762L192.14775,63.087466621398946L192.611875,61.23527469635012L192.72790625000002,60.849299240112295L192.8439375,59.882630252838155L194.9325,60.73329391479494L196.324875,60.40598802566527L196.44090624999998,60.24910326004029L197.13709375,60.113523387908955L197.36915625,61.541762351989746L197.9493125,60.558438777923584L200.966125,60.3192003250122L201.19818750000002,59.391572284698476L202.3585,59.93515348434448L203.63484375000002,58.187034702301005L203.98293750000002,59.7662103652954L204.33103125,59.88828992843628L206.65165625,59.97318506240845L207.34784375,59.135282707214365L208.1600625,57.98088912963866L208.85625,58.749577617645244L210.0165625,58.52894039154054L210.59671875,57.661081409454326L210.71275000000003,56.27289276123046L211.06084374999998,58.152445793151855L211.98909375,57.1815230369568L212.33718750000003,58.40042610168458L212.68528125,58.447523975372334L213.033375,58.613601207733154L213.14940625000003,57.62452783584597L215.23796875000002,55.6012659072876L216.97843749999998,57.39145374298096L218.71890625,55.155377197265615L219.067,55.310099029541036L219.18303125,55.489766693115214L219.41509374999998,55.91153869628904L219.531125,54.56112928390504L222.0838125,58.062521839141866L222.66396874999998,56.33249959945677L223.0120625,54.91175880432131L223.47618749999998,56.502542209625254L223.70825,56.10257978439332L224.17237500000002,57.00531606674193L224.6365,54.70436954498291L225.100625,54.825277519226084L228.00140624999997,53.91244754791258L228.1174375,56.3636818885803L229.39378125,53.842386531829824L230.32203125,54.386796855926534L230.43806249999997,54.0909616470337L230.78615625,54.19157409667969L231.01821875,52.9716616630554L232.17853125000002,54.915706157684326L232.99075000000002,53.54359531402588L234.73121874999998,53.085918617248545L234.84725,53.45311260223389L235.19534375,52.504179668426524L237.98009374999998,51.4945043563843L238.096125,53.51636037826536L238.3281875,52.78044033050537L239.14040625,52.05167598724366L239.952625,53.49013481140135L240.06865625000003,51.8646183013916L241.11293750000002,52.03727445602415L241.5770625,51.52747106552124L241.809125,51.07494935989378L242.27325,51.20005702972412L243.31753124999997,53.07968215942382L244.12974999999997,50.462370586395274L244.24578125,51.48547410964966L244.8259375,52.21694211959838L245.75418749999997,50.23596553802489L246.79846875,50.59694108963011L246.9145,51.32478618621826L247.37862499999997,51.32217264175415L247.95878125,51.15144510269166L248.306875,50.5265015602112L248.5389375,50.434847259521504L248.88703125,50.59310188293459L249.235125,50.20289068222045L249.69925,51.66962985992431L250.6275,49.83412857055665L251.55575000000002,50.99852571487425L252.01987499999998,49.491051292419414L252.36796875000002,50.617543029785146L253.18018750000002,52.03480510711669L254.22446875,52.45951509475708L254.68859375,50.98255605697633L254.80462500000002,49.30411977767945L254.92065624999998,50.66069355010988L255.15271875000002,49.75768690109252L255.5008125,49.21277189254761L256.31303125,51.01937999725344L257.3573125,49.571890926361064L258.517625,48.57836551666261L258.98175,48.51201753616332L259.21381249999996,48.47544593811036L259.56190625,49.10563459396364L260.1420625,48.707060050964365L260.49015625,49.57536964416503L260.6061875,48.14228210449217L260.72221875,48.25098752975464L261.30237500000004,49.449955558776836L262.92681250000004,50.23591146469114L263.97109375,48.52813138961794L264.66728125,50.63454008102417L265.4795,50.01691446304319L265.59553125,49.73495807647707L266.6398125,49.04952449798585L267.45203125,48.520164585113505L268.84440625,48.53685522079468L269.8886875,47.83301868438723L270.35281249999997,49.91520252227785L271.513125,47.737633323669414L271.62915625,47.31195001602172L271.97724999999997,47.860217571258545L272.55740625,47.74432039260864L273.02153125,46.476156520843496L274.5299375,47.63694877624513L274.87803125,47.832838439941426L275.57421875,48.43519735336304L275.69025,46.63001317977906L275.80628125,47.731216621398936L279.75134375,48.1730498313904L280.44753125,47.64891700744628L281.25975,46.23938741683962L281.9559375,45.49434700012209L282.4200625,46.4427932739258L282.65212499999996,46.890989112853994L282.8841875,47.31649217605589L283.580375,46.379185009002676L283.92846875000004,45.216139698028584L284.16053125,45.77578067779541L284.508625,46.00384397506715L284.85671874999997,45.25191822052004L286.24909375,46.02913227081301L286.48115624999997,45.301900005340556L287.87353125,46.57456998825072L287.98956250000003,45.068717765808096L288.10559374999997,46.51921691894533L289.73003124999997,46.233367252349844L290.19415625,47.36495990753175L290.65828125,45.6817831993103L291.12240625,45.271510791778574L291.58653125,44.98472385406493L292.05065625000003,44.440764141082774L292.97890625,44.71875514984133L293.21096875,45.0812267303467L293.5590625,46.34171218872071L293.90715625,45.712352657318135L294.25525,44.97785654067995L294.83540625,44.71165351867675L297.04,45.18430852890015L298.432375,46.01747045516966L298.54840624999997,46.62395696640014L298.8965,44.07229042053223L299.01253125,44.31133060455321L299.24459375000004,44.39323368072512L299.47665625,43.876022243499776L299.94078125,44.74829721450806L300.40490625,44.86857433319093L300.98506249999997,45.191031646728526L301.21712499999995,45.340977001190176L302.02934374999995,44.55943708419799L302.95759375,44.15163402557372L303.42171874999997,43.60488052368165L304.23393749999997,46.37536382675171L304.34996875,45.71979675292967L306.0904375,44.94568290710451L306.43853125,45.22953186035154L306.786625,45.843913078308105L306.90265625,46.49290122985842L307.36678125000003,47.124063205719004L307.59884375,44.62865095138549L308.17900000000003,44.416016578674316L309.10724999999996,45.9233648300171L309.22328125,46.66790056228638L309.68740625,45.207235622405996L309.91946874999996,45.68582067489622L310.15153125,45.234596729278564L310.61565625000003,45.48677673339846L311.77596875,44.40078592300415L312.00803125,44.155220890045186L312.24009375,44.02656240463258L312.356125,45.12443132400514L312.82025,43.75003137588503L313.16834375,43.5361533164978L314.09659375,44.03157320022585L314.56071875,43.97184019088744L316.18515625,43.68361129760744L316.64928125,43.35571060180662L316.88134375,44.16536865234373L317.4615,44.54597282409668L317.57753125,44.78766260147093L317.80959375000003,43.160559940338125L318.1576875,44.692457485198965L318.38975,42.30037937164305L318.62181250000003,43.50268192291261L318.73784374999997,43.78694543838499L319.55006249999997,45.149467277526846L319.89815625,45.05345106124878L320.4783125,44.32162256240846L322.68290625000003,43.834115409851094L323.84321875,43.4902090072632L324.53940625,42.207463359832744L324.88750000000005,42.32914638519287L325.23559374999996,41.8748222351074L325.5836875,42.57885704040525L325.69971875000005,43.243634605407735L325.81575,42.837381649017324L327.09209375,44.6655830383301L327.208125,44.801235008239736L327.4401875,43.672832679748545L328.94859375000004,43.03943567276L330.10890625,44.049165058135976L331.1531875,41.6313660621643L333.12571875,41.48399820327761L335.21428125,46.50468921661377L335.3303125,44.73726625442506L335.562375,44.10069694519045L336.490625,43.08318099975584L336.7226875,44.309420013427754L337.18681250000003,42.664653396606425L338.347125,43.02096061706542L339.275375,43.29534673690796L339.39140625,42.07483949661257L340.66775,43.340263652801504L341.596,42.89401445388792L342.2921875,44.16457557678223L342.40821875,43.020131492614766L342.64028125,42.7397792816162L342.87234375,43.84042396545412L343.45250000000004,43.11065025329591L346.35328125,42.46232900619505L346.4693125,41.63448429107666L347.629625,45.54349966049195L347.86168749999996,43.88002367019654L348.32581250000004,44.619530582428L348.44184375,41.62689599990843L349.7181875,45.93230495452879L350.06628125,45.40390033721925L350.76246875000004,43.42970094680784L351.342625,43.42189636230471L351.57468750000004,41.63185272216795L351.80675,42.5788209915161L352.0388125,42.34790983200075L353.54721875,41.042453384399394L354.01134375,41.05732355117796L354.24340625,41.307971477508545L354.5915,41.46337823867797L355.63578125,42.680496883392344L355.7518125,41.27439193725585L356.912125,41.48603496551512L357.1441875,41.57714853286741L358.5365625,45.22852249145509L358.65259375,45.04881877899171L358.768625,43.81655960083007L359.23275,45.01462640762331L359.696875,45.93758611679076L360.3930625,43.32633075714109L362.36559374999996,42.851458740234385L362.7136875,42.40782308578491L363.06178125,40.885568618774414L363.17781249999996,41.85598669052122L364.1060625,41.69237880706786L364.80224999999996,41.6440552711487L365.4984375,41.19146146774294L366.07859375000004,44.023552322387715L368.2831875,41.97968845367431L368.7473125,42.09791078567507L368.979375,41.82568759918214L369.55953125,43.26104621887206L370.13968750000004,42.26885461807251L371.64809375,40.9396780014038L372.4603125,43.81632528305052L374.20078125,44.97326030731203L375.477125,44.15601396560669L375.59315625,41.70299520492556L375.94125,44.006987857818594L376.6374375,45.37376346588137L377.44965625,58.96064386367796L377.5656875,55.07596149444582L377.68171875,56.47586603164674L377.79775,54.83784055709839L377.91378125,56.61178836822508L378.9580625,46.93217496871947L381.62678125,43.204377365112315L381.74281249999996,42.98392038345336L381.85884375,43.63525171279908L382.6710625,43.17524986267089L383.94740625,40.94951934814454L384.17946874999996,41.949461460113525L385.57184374999997,40.42991065979004L385.687875,41.85376968383791L386.03596875,41.125528049469004L386.26803125000004,40.78735342025759L386.38406249999997,40.911127281188975L386.616125,40.34317703247071L388.82071874999997,42.07774143218993L389.74896875,41.36184654235838L390.0970625,41.46366662979127L391.14134375000003,42.385598945617666L391.25737499999997,41.571200466155986L392.185625,42.14818096160889L392.30165625,41.3445430755615L392.99784375,40.49297819137571L393.3459375,42.45102767944335L394.042125,45.4498266220093L394.2741875,44.00848388671875L394.50625,43.656917095184326L396.47878125,42.78963489532472L396.71084375,43.19787054061889L396.826875,41.1483109474182L396.94290625,42.180120277404775L398.21925,41.41505470275881L399.3795625,43.12523202896117L400.3078125,41.877940464019765L402.28034375,43.03100023269651L403.0925625,44.023714542388916L403.20859375000003,43.48519821166993L403.55668749999995,42.70537061691285L405.4131875,44.521747970581075L405.8773125,41.259287452697734L406.45746875000003,41.41247720718385L406.68953124999996,42.01681880950927L406.92159375,41.049374771118174L407.15365625000004,40.94757270812988L407.38571874999997,43.20266504287721L407.84984375,41.63639488220217L407.96587500000004,41.82568759918214L409.24221875,42.20822038650515L409.59031250000004,41.43870277404786L410.51856250000003,42.10057840347288L410.86665625,41.18610820770262L410.9826875,43.010812854766826L411.9109375,42.37301788330076L413.65140625,43.026908683776846L413.88346875,41.799425983428975L414.11553125000006,42.87604408264159L414.34759375,41.894288635253886L415.62393749999995,42.041458225250224L416.0880625,42.04347696304323L417.59646875,42.18394145965574L420.2651875,43.07662010192871L422.00565625,45.11404924392699L422.12168749999995,45.21502218246458L422.817875,42.96551742553713L422.93390624999995,42.93318157196044L423.16596875,45.11435565948484L423.5140625,42.871916484832774L424.09421875,42.90567626953127L424.55834375,42.782316970825185L424.79040625,43.55799894332885L426.64690625,48.08822679519653L427.92324999999994,46.87128839492796L428.73546874999994,43.35632343292237L428.85150000000004,45.06091318130491L429.66371875000004,46.62994108200071L430.0118125,47.28911304473877L432.79656249999994,43.57892532348634L433.14465624999997,45.48342418670654L433.95687499999997,44.43067045211793L434.30496875,44.91823167800904L434.42099999999994,45.26626567840575L434.6530625,46.090361309051524L434.76909374999997,43.899093532562276L435.58131249999997,47.03102102279665L437.08971875,45.200242137908916L437.669875,43.10459403991698L438.71415625000003,44.113404178619405L438.94621875,44.34972267150878L439.17828125,43.45965757369997L439.9905,46.063180446624756L441.49890625,45.508964824676504L441.73096875,46.14899482727053L442.42715625,43.98353805541994L443.35540625,42.70263090133669L444.05159375,43.83707141876221L444.167625,43.485756969451884L444.74778125,44.27412815093995L445.32793749999996,43.69246129989623L446.14015624999996,46.132484436035156L447.06840624999995,43.578474712371836L447.53253125000003,43.36000041961669L447.99665625,44.60761642456055L449.50506249999995,43.538820934295664L449.737125,42.89109449386596L449.96918750000003,43.725932693481425L450.31728124999995,43.869190979003896L450.8974375,43.72198534011841L452.86996875000006,45.86411848068239L453.450125,44.461528301239014L455.5386875,46.928101444244405L456.00281249999995,43.43894748687743L456.35090625,42.80600109100344L456.93106250000005,43.40201539993287L457.74328125000005,46.73518581390382L458.20740625,46.68951187133787L458.43946874999995,46.24558782577515L459.13565625,45.257668018341064L459.25168749999995,44.81215782165528L459.947875,44.21890125274656L460.76009375,45.77761917114257L461.45628125,45.03270492553709L461.80437500000005,46.67833671569822L462.5005625,44.402155780792256L463.77690624999997,46.4071228981018L464.00896875,45.77076988220214L465.16928125000004,46.665196895599365L465.517375,46.57352457046507L465.7494375,46.754363822937L466.32959375,45.56781463623046L468.18609375,44.187484645843526L468.41815625000004,44.81304101943969L469.11434375000005,45.880394554138164L469.57846875,51.09596586227417L469.81053125,49.773007678985586L471.43496875,45.891984272003164L472.82734375,45.72515001296999L473.40749999999997,46.598398303985576L474.799875,45.85002336502073L474.91590625000003,45.359001445770254L475.61209375,45.97176046371461L475.72812500000003,46.02779846191405L477.35256250000003,46.59043149948119L477.8166875,47.41636562347412L478.04875,47.37195339202883L478.2808125,48.96801795959475L478.62890625,46.4879445075989L478.97700000000003,45.20409936904908L480.02128124999996,47.75499086380004L480.71746875,46.895945835113515L480.94953125000006,46.42435426712037L482.22587500000003,48.56582050323485L482.34190625,46.34145984649656L483.03809375000003,47.76019992828371L483.85031250000003,47.105552101135274L486.63506249999995,48.20513334274294L487.33124999999995,52.23815689086912L487.5633125,48.88305072784423L489.99996875000005,49.205165576934824L490.3480625,47.41358985900881L490.81218750000005,46.969377422332784L490.92821875,46.18181734085082L491.04425,47.064582538604746L491.7404375,49.380597496032735L492.08853125,50.808962631225576L492.32059374999994,48.17568140029906L493.364875,48.55989046096803L494.17709375,50.042076587677L494.75724999999994,47.07435178756714L495.68550000000005,45.71736345291136L496.149625,47.209444999694824L496.61375,47.8967891693115L498.12215625000005,49.61176099777224L498.35421875,47.765769481658936L498.7023125,47.92141056060791L500.0946875,48.866233921051005L500.55881250000004,48.65208549499513L501.13896875,49.0731725692749L501.37103125000004,50.03081130981445L502.53134374999996,47.19893674850463L502.76340625,48.02461853027346L502.99546875000004,48.16839952468873L504.503875,48.48159227371214L506.36037500000003,50.53937101364136L506.94053125,46.974442291259756L507.75275,49.830721950530986L510.65353124999996,48.61286430358886L510.7695625,48.469155406951884L510.88559375,50.56027936935425L511.6978125,49.057671546936035L512.858125,49.539519023895274L513.786375,48.30232114791871L514.59859375,48.94045858383178L515.0627187499999,49.57578420639038L516.3390625,49.04802846908569L517.03525,49.468628883361816L517.7314375,50.755628299713145L518.0795312500001,50.34458084106446L519.82,52.86243352890013L520.284125,51.599911308288554L521.56046875,49.860209941864014L522.140625,48.626130294799815L522.72078125,50.917307567596445L523.18490625,49.98919286727907L523.3009374999999,50.868461322784434L524.57728125,51.09333429336546L524.6933125,52.054848289489726L525.96965625,49.41223039627077L526.20171875,51.47199182510375L526.31775,50.78480987548827L527.12996875,49.902152824401846L527.36203125,51.44142236709597L527.4780625000001,50.0525668144226L527.59409375,51.63107557296754L527.710125,49.992166900634786L528.4063125,51.4034809112549L530.959,50.51709280014036L532.93153125,50.848219871520996L533.5116875,50.34598674774172L533.62771875,50.66729049682616L533.85978125,50.640506172180196L534.78803125,51.46919803619384L536.18040625,49.837210750579814L541.51784375,53.288873863220225L543.14228125,50.181063079834004L543.2583125,51.14632616043089L544.53465625,51.80001869201662L544.6506875,50.84459695816038L544.88275,52.0724581718445L545.1148125,51.39636125564577L545.4629062500001,51.19758768081666L545.5789375,52.19351034164428L545.811,52.65754966735839L548.47971875,52.65783805847169L549.059875,53.159854888916016L549.40796875,53.32157020568847L549.7560625,53.6297882080078L550.3362187500001,54.00743637084959L551.6125625,53.19473218917847L552.65684375,51.85766086578367L553.0049375,52.573952293395976L553.1209687500001,52.78900194168091L554.16525,52.179072761535664L554.8614375,52.22031269073484L556.7179375,54.81770725250245L557.414125,53.23889207839966L557.87825,54.94881706237792L558.92253125,53.80626554489137L559.15459375,52.97557296752932L560.198875,53.55797882080079L560.663,54.82158250808717L561.3591875000001,52.85370969772339L561.93934375,53.91466455459594L562.63553125,54.26621332168581L563.6798124999999,56.530191707611074L564.49203125,54.97174415588377L564.95615625,53.911924839019775L566.0004375,53.388224601745605L567.74090625,55.49102840423582L568.5531249999999,55.349103927612305L568.90121875,55.49077606201172L569.13328125,54.43522853851319L569.2493125,57.944732093811055L569.7134374999999,55.66227865219116L569.82946875,57.24864606857299L571.3378749999999,54.8165717124939L572.0340625,54.179695987701436L572.15009375,54.908388233184795L572.38215625,54.79160785675049L573.0783437499999,55.552419662475586L573.4264375,54.64717798233031L576.55928125,55.20806264877319L577.25546875,55.072464752197256L577.7195937500001,56.246613121032695L578.0676875,55.52758197784423L578.9959375,56.94711513519288L579.2280000000001,59.23155126571653L580.73640625,54.99465322494507L581.2005312499999,58.085575103759766L581.3165625,55.42859172821045L583.52115625,56.21364641189575L583.6371875,55.65263557434082L583.98528125,55.45921525955198L584.7975,56.09502754211424L585.0295625,56.00813169479371L585.9578125,57.195185565948506L586.189875,57.055189704895L586.30590625,55.94856090545655L587.8143125,56.982316875457784L588.046375,57.8058717727661L589.2066875,63.1224160194397L589.55478125,56.984804248809795L590.831125,57.08013553619386L591.17921875,57.090914154052754L591.41128125,57.171879959106455L591.64334375,54.723637676238994L593.03571875,57.05690202713011L595.00825,59.23164138793943L596.7487187500001,57.035470962524414L597.44490625,57.42674560546876L598.257125,58.03591775894165L598.9533125,59.35474834442137L599.185375,58.5553642272949L599.6495,56.62655038833619L600.46171875,58.94092512130737L600.57775,58.35349044799803L600.69378125,58.355563259124736L601.85409375,58.968808937072744L604.29075,58.231086444854746L604.87090625,58.57263164520263L605.4510625,59.19926948547364L606.14725,59.50727119445803L607.3075624999999,60.316280364990234L607.88771875,59.654314613342265L608.58390625,59.32356605529783L609.04803125,58.57158622741697L609.1640625,59.029353046417256L610.0923124999999,59.61082162857058L610.44040625,58.70918483734132L610.5564375,59.400314140319814L610.7885,58.140729904174805L611.13659375,59.02560396194459L611.252625,59.564084243774424L611.36865625,59.25339689254763L612.180875,58.881588649749766L612.52896875,60.37595930099489L612.6450000000001,61.77631444931031L612.76103125,62.300555419921885L612.8770625,61.29830617904664L613.1091250000001,60.692270278930664L613.45721875,62.055729389190674L613.57325,62.84453315734864L614.2694375000001,56.82849626541137L614.9656249999999,58.34999370574951L615.1976875,59.52882843017577L615.54578125,58.64060182571412L617.86640625,59.485551738739034L618.09846875,59.42942361831664L618.79465625,60.969540309906016L619.6068750000001,60.43808956146241L620.99925,60.325671100616475L622.50765625,60.438972759246816L623.2038437499999,59.10237007141112L623.43590625,60.584249782562246L625.29240625,61.12720012664795L625.6405,62.37029199600219L625.8725625,60.63621425628662L625.98859375,64.49706830978396L628.1931875,62.43377408981321L629.23746875,60.09196615219116L630.9779374999999,61.8192847251892L631.3260312499999,62.187506103515645L632.8344375,61.552955532073995L633.7626875,63.86839370727538L634.6909375,62.52622146606446L634.80696875,62.16576862335205L635.1550625,61.98819179534913L635.387125,61.47119665145874L635.5031562500001,61.922420597076396L637.1275937500001,61.721393966674825L638.05584375,63.73986139297487L639.7963125,61.71728439331056L640.6085312499999,63.202498626708994L641.30471875,62.15861291885377L641.6528125,63.91687946319579L642.46503125,62.47997074127196L643.9734374999999,62.8238410949707L644.2055,62.36457824707031L644.32153125,62.609386253356924L644.4375625,62.56263084411622L645.13375,63.4465856552124L647.2223124999999,63.52517223358154L649.0788125,65.33489856719969L649.89103125,61.42957820892336L650.4711874999999,64.59202108383177L650.58721875,62.98634948730471L651.28340625,63.878865909576426L652.3276875,62.33874921798705L652.7918125,66.83945302963257L653.0238750000001,63.862752056121806L653.7200624999999,64.05373907089233L654.06815625,63.70388460159302L656.736875,65.0048529624939L657.31703125,64.28980522155761L658.8254375,64.8777445793152L659.2895625,63.82439603805544L659.63765625,64.30411663055422L661.378125,63.44072771072388L662.306375,64.69984331130983L662.7705,65.57319974899292L662.8865312500001,67.11423568725586L664.97509375,64.8318543434143L665.3231875,64.29728536605835L665.43921875,65.82516345977781L665.67128125,65.50292243957522L665.90334375,65.10685329437256L666.019375,66.14289836883545L666.4835,65.55443630218504L666.59953125,65.9157362937927L667.875875,65.38736772537231L668.5720625,64.15361251831057L669.0361875,66.015735912323L671.70490625,65.59749670028687L673.2133125,66.59502353668215L674.1415625,68.25363292694094L674.83775,65.08003292083738L675.0698125,65.96213121414185L675.18584375,65.76469144821165L676.34615625,66.70780248641968L676.4621875,66.78494710922241L678.20265625,65.73769083023073L678.55075,66.40194568634031L679.82709375,68.23164310455324L679.943125,69.06480503082275L680.29121875,67.97178468704222L681.45153125,67.05787324905396L682.26375,66.3083988189697L682.7278749999999,66.98876752853396L683.192,66.260399723053L684.2362812499999,67.22348184585572L684.8164375,67.65296831130983L685.0485,68.44694509506228L685.2805625,69.8146039009094L686.32484375,67.47290410995485L686.9050000000001,64.61489410400391L687.48515625,66.85134916305542L689.10959375,69.25303430557251L689.2256249999999,70.05708675384521L689.4576875,67.26003541946413L690.03784375,66.91036119461062L691.082125,67.24868001937868L691.7783125000001,67.83860206604004L693.28671875,66.78464069366457L694.331,68.40525455474854L694.5630625,66.78065729141235L695.0271875000001,68.09934368133547L695.14321875,68.35103702545166L695.60734375,67.00635938644409L696.30353125,70.07848176956175L696.9997187499999,68.53405723571775L697.579875,68.65626296997068L697.92796875,67.7141613006592L698.16003125,70.34405393600464L699.436375,70.81227493286133L699.9005000000001,68.82360191345215L700.94478125,68.74011268615725L701.40890625,68.0491816520691L701.8730312499999,68.25622844696045L702.4531875,68.61145420074463L703.03334375,68.45006332397459L703.8455625,69.55970220565796L704.42571875,69.27062616348265L704.65778125,67.9904399871826L704.8898437500001,70.41945018768313L705.005875,71.7741313934326L706.05015625,68.20161437988281L706.1661875,70.04645233154297L706.28221875,68.26187009811402L706.97840625,69.88873844146728L708.3707812499999,68.79496107101438L708.9509375,70.09930000305174L709.8791875,68.7670051574707L710.11125,68.48090314865112L711.2715625,70.68233671188356L711.503625,70.24573059082032L713.2440937499999,70.14578504562378L714.5204375,70.42083806991577L714.7525,70.41461963653565L715.216625,69.93199710845947L715.4486875,70.0209837913513L716.609,69.70494318008423L716.95709375,70.29401807785034L717.8853437500001,71.6503755569458L719.39375,70.18069839477539L719.6258125,70.21013231277466L720.90215625,69.70602464675903L721.714375,70.10375204086306L722.06246875,70.50937414169312L722.52659375,72.22288599014284L724.15103125,70.7476933479309L725.427375,70.75719223022459L726.23959375,70.3569414138794L727.0518125,71.44516725540161L728.212125,69.77139930725097L728.56021875,70.75328092575073L729.02434375,71.10701065063476L729.140375,71.92097654342653L729.72053125,72.46724338531494L730.41671875,72.45462627410889L730.64878125,71.15547838211062L731.80909375,70.55805816650393L731.925125,70.31427755355837L733.89765625,70.76750221252443L734.24575,71.21252574920656L734.82590625,72.79581098556518L735.05796875,72.99061918258667L736.21828125,72.22000207901003L736.45034375,72.53117609024048L737.84271875,72.69350423812868L738.1908125,72.12358932495117L738.422875,73.3420237541199L739.23509375,72.45276975631714L740.3954062500001,75.75793018341066L741.32365625,72.87432546615601L741.55571875,71.76016244888304L741.78778125,72.77082910537722L742.1358749999999,70.86553716659546L742.3679375,74.31700201034546L743.41221875,71.51764354705809L744.57253125,72.73768215179443L744.6885625,74.00290803909301L745.6168125,74.07262659072876L745.848875,73.60020589828491L746.313,72.98854637145996L746.42903125,72.93256244659422L746.66109375,73.40516338348387L748.633625,74.00880203247068L749.21378125,73.62318706512451L749.44584375,74.96881999969484L749.561875,73.63497505187986L749.90996875,73.21543807983399L750.95425,73.8288640022278L753.0428125,73.95831556320191L754.08709375,74.10245704650879" style="fill: none;" fill="none"></path></g></g></g></g></g></g><g transform="translate(30, 378)" clip-path="url(#clip_1)"><clipPath id="clip_1"><rect width="812" height="22"></rect></clipPath><g><g><line x1="0" y1="0" x2="0" y2="5" style="visibility: inherit;" fill="rgb(0, 0, 0)" stroke="rgb(204, 204, 204)" stroke-width="1px"></line><line x1="58.015625" y1="0" x2="58.015625" y2="5" style="visibility: inherit;" fill="rgb(0, 0, 0)" stroke="rgb(204, 204, 204)" stroke-width="1px"></line><line x1="116.03125" y1="0" x2="116.03125" y2="5" style="visibility: inherit;" fill="rgb(0, 0, 0)" stroke="rgb(204, 204, 204)" stroke-width="1px"></line><line x1="174.046875" y1="0" x2="174.046875" y2="5" style="visibility: inherit;" fill="rgb(0, 0, 0)" stroke="rgb(204, 204, 204)" stroke-width="1px"></line><line x1="232.0625" y1="0" x2="232.0625" y2="5" style="visibility: inherit;" fill="rgb(0, 0, 0)" stroke="rgb(204, 204, 204)" stroke-width="1px"></line><line x1="290.078125" y1="0" x2="290.078125" y2="5" style="visibility: inherit;" fill="rgb(0, 0, 0)" stroke="rgb(204, 204, 204)" stroke-width="1px"></line><line x1="348.09375" y1="0" x2="348.09375" y2="5" style="visibility: inherit;" fill="rgb(0, 0, 0)" stroke="rgb(204, 204, 204)" stroke-width="1px"></line><line x1="406.109375" y1="0" x2="406.109375" y2="5" style="visibility: inherit;" fill="rgb(0, 0, 0)" stroke="rgb(204, 204, 204)" stroke-width="1px"></line><line x1="464.125" y1="0" x2="464.125" y2="5" style="visibility: inherit;" fill="rgb(0, 0, 0)" stroke="rgb(204, 204, 204)" stroke-width="1px"></line><line x1="522.140625" y1="0" x2="522.140625" y2="5" style="visibility: inherit;" fill="rgb(0, 0, 0)" stroke="rgb(204, 204, 204)" stroke-width="1px"></line><line x1="580.15625" y1="0" x2="580.15625" y2="5" style="visibility: inherit;" fill="rgb(0, 0, 0)" stroke="rgb(204, 204, 204)" stroke-width="1px"></line><line x1="638.171875" y1="0" x2="638.171875" y2="5" style="visibility: inherit;" fill="rgb(0, 0, 0)" stroke="rgb(204, 204, 204)" stroke-width="1px"></line><line x1="696.1875" y1="0" x2="696.1875" y2="5" style="visibility: inherit;" fill="rgb(0, 0, 0)" stroke="rgb(204, 204, 204)" stroke-width="1px"></line><line x1="754.203125" y1="0" x2="754.203125" y2="5" style="visibility: inherit;" fill="rgb(0, 0, 0)" stroke="rgb(204, 204, 204)" stroke-width="1px"></line><line x1="812.21875" y1="0" x2="812.21875" y2="5" style="visibility: inherit;" fill="rgb(0, 0, 0)" stroke="rgb(204, 204, 204)" stroke-width="1px"></line></g><g transform="translate(0, 8)"><text x="0" y="0" dx="0em" dy="0.95em" style="text-anchor: middle; visibility: hidden; font-family: Roboto, sans-serif; font-size: 12px; font-weight: 200;" fill="rgb(50, 49, 63)" stroke="none" stroke-width="1px">-500</text><text x="58.015625" y="0" dx="0em" dy="0.95em" style="text-anchor: middle; visibility: inherit; font-family: Roboto, sans-serif; font-size: 12px; font-weight: 200;" fill="rgb(50, 49, 63)" stroke="none" stroke-width="1px">0</text><text x="116.03125" y="0" dx="0em" dy="0.95em" style="text-anchor: middle; visibility: inherit; font-family: Roboto, sans-serif; font-size: 12px; font-weight: 200;" fill="rgb(50, 49, 63)" stroke="none" stroke-width="1px">500</text><text x="174.046875" y="0" dx="0em" dy="0.95em" style="text-anchor: middle; visibility: inherit; font-family: Roboto, sans-serif; font-size: 12px; font-weight: 200;" fill="rgb(50, 49, 63)" stroke="none" stroke-width="1px">1k</text><text x="232.0625" y="0" dx="0em" dy="0.95em" style="text-anchor: middle; visibility: inherit; font-family: Roboto, sans-serif; font-size: 12px; font-weight: 200;" fill="rgb(50, 49, 63)" stroke="none" stroke-width="1px">1.5k</text><text x="290.078125" y="0" dx="0em" dy="0.95em" style="text-anchor: middle; visibility: inherit; font-family: Roboto, sans-serif; font-size: 12px; font-weight: 200;" fill="rgb(50, 49, 63)" stroke="none" stroke-width="1px">2k</text><text x="348.09375" y="0" dx="0em" dy="0.95em" style="text-anchor: middle; visibility: inherit; font-family: Roboto, sans-serif; font-size: 12px; font-weight: 200;" fill="rgb(50, 49, 63)" stroke="none" stroke-width="1px">2.5k</text><text x="406.109375" y="0" dx="0em" dy="0.95em" style="text-anchor: middle; visibility: inherit; font-family: Roboto, sans-serif; font-size: 12px; font-weight: 200;" fill="rgb(50, 49, 63)" stroke="none" stroke-width="1px">3k</text><text x="464.125" y="0" dx="0em" dy="0.95em" style="text-anchor: middle; visibility: inherit; font-family: Roboto, sans-serif; font-size: 12px; font-weight: 200;" fill="rgb(50, 49, 63)" stroke="none" stroke-width="1px">3.5k</text><text x="522.140625" y="0" dx="0em" dy="0.95em" style="text-anchor: middle; visibility: inherit; font-family: Roboto, sans-serif; font-size: 12px; font-weight: 200;" fill="rgb(50, 49, 63)" stroke="none" stroke-width="1px">4k</text><text x="580.15625" y="0" dx="0em" dy="0.95em" style="text-anchor: middle; visibility: inherit; font-family: Roboto, sans-serif; font-size: 12px; font-weight: 200;" fill="rgb(50, 49, 63)" stroke="none" stroke-width="1px">4.5k</text><text x="638.171875" y="0" dx="0em" dy="0.95em" style="text-anchor: middle; visibility: inherit; font-family: Roboto, sans-serif; font-size: 12px; font-weight: 200;" fill="rgb(50, 49, 63)" stroke="none" stroke-width="1px">5k</text><text x="696.1875" y="0" dx="0em" dy="0.95em" style="text-anchor: middle; visibility: inherit; font-family: Roboto, sans-serif; font-size: 12px; font-weight: 200;" fill="rgb(50, 49, 63)" stroke="none" stroke-width="1px">5.5k</text><text x="754.203125" y="0" dx="0em" dy="0.95em" style="text-anchor: middle; visibility: inherit; font-family: Roboto, sans-serif; font-size: 12px; font-weight: 200;" fill="rgb(50, 49, 63)" stroke="none" stroke-width="1px">6k</text><text x="812.21875" y="0" dx="0em" dy="0.95em" style="text-anchor: middle; visibility: hidden; font-family: Roboto, sans-serif; font-size: 12px; font-weight: 200;" fill="rgb(50, 49, 63)" stroke="none" stroke-width="1px">6.5k</text></g><line x1="0" y1="0" x2="812.21875" y2="0" fill="rgb(0, 0, 0)" stroke="rgb(204, 204, 204)" stroke-width="1px"></line></g></g></g></g></svg>