<svg viewBox="0 0 330 200" xmlns="http://www.w3.org/2000/svg"><g><g><g><g><g><line x1="30.78125" y1="178" x2="25.78125" y2="178" style="visibility: inherit;" fill="rgb(0, 0, 0)" stroke="rgb(204, 204, 204)" stroke-width="1px"></line><line x1="30.78125" y1="164.30769230769232" x2="25.78125" y2="164.30769230769232" style="visibility: inherit;" fill="rgb(0, 0, 0)" stroke="rgb(204, 204, 204)" stroke-width="1px"></line><line x1="30.78125" y1="150.6153846153846" x2="25.78125" y2="150.6153846153846" style="visibility: inherit;" fill="rgb(0, 0, 0)" stroke="rgb(204, 204, 204)" stroke-width="1px"></line><line x1="30.78125" y1="136.9230769230769" x2="25.78125" y2="136.9230769230769" style="visibility: inherit;" fill="rgb(0, 0, 0)" stroke="rgb(204, 204, 204)" stroke-width="1px"></line><line x1="30.78125" y1="123.23076923076923" x2="25.78125" y2="123.23076923076923" style="visibility: inherit;" fill="rgb(0, 0, 0)" stroke="rgb(204, 204, 204)" stroke-width="1px"></line><line x1="30.78125" y1="109.53846153846155" x2="25.78125" y2="109.53846153846155" style="visibility: inherit;" fill="rgb(0, 0, 0)" stroke="rgb(204, 204, 204)" stroke-width="1px"></line><line x1="30.78125" y1="95.84615384615384" x2="25.78125" y2="95.84615384615384" style="visibility: inherit;" fill="rgb(0, 0, 0)" stroke="rgb(204, 204, 204)" stroke-width="1px"></line><line x1="30.78125" y1="82.15384615384616" x2="25.78125" y2="82.15384615384616" style="visibility: inherit;" fill="rgb(0, 0, 0)" stroke="rgb(204, 204, 204)" stroke-width="1px"></line><line x1="30.78125" y1="68.46153846153845" x2="25.78125" y2="68.46153846153845" style="visibility: inherit;" fill="rgb(0, 0, 0)" stroke="rgb(204, 204, 204)" stroke-width="1px"></line><line x1="30.78125" y1="54.769230769230774" x2="25.78125" y2="54.769230769230774" style="visibility: inherit;" fill="rgb(0, 0, 0)" stroke="rgb(204, 204, 204)" stroke-width="1px"></line><line x1="30.78125" y1="41.076923076923066" x2="25.78125" y2="41.076923076923066" style="visibility: inherit;" fill="rgb(0, 0, 0)" stroke="rgb(204, 204, 204)" stroke-width="1px"></line><line x1="30.78125" y1="27.384615384615387" x2="25.78125" y2="27.384615384615387" style="visibility: inherit;" fill="rgb(0, 0, 0)" stroke="rgb(204, 204, 204)" stroke-width="1px"></line><line x1="30.78125" y1="13.692307692307683" x2="25.78125" y2="13.692307692307683" style="visibility: inherit;" fill="rgb(0, 0, 0)" stroke="rgb(204, 204, 204)" stroke-width="1px"></line><line x1="30.78125" y1="0" x2="25.78125" y2="0" style="visibility: inherit;" fill="rgb(0, 0, 0)" stroke="rgb(204, 204, 204)" stroke-width="1px"></line></g><g transform="translate(20.78125, 0)"><text x="0" y="178" dx="0em" dy="0.3em" style="text-anchor: end; visibility: hidden; font-family: Roboto, sans-serif; font-size: 12px; font-weight: 200;" fill="rgb(50, 49, 63)" stroke="none" stroke-width="1px">10</text><text x="0" y="164.30769230769232" dx="0em" dy="0.3em" style="text-anchor: end; visibility: inherit; font-family: Roboto, sans-serif; font-size: 12px; font-weight: 200;" fill="rgb(50, 49, 63)" stroke="none" stroke-width="1px">11</text><text x="0" y="150.6153846153846" dx="0em" dy="0.3em" style="text-anchor: end; visibility: hidden; font-family: Roboto, sans-serif; font-size: 12px; font-weight: 200;" fill="rgb(50, 49, 63)" stroke="none" stroke-width="1px">12</text><text x="0" y="136.9230769230769" dx="0em" dy="0.3em" style="text-anchor: end; visibility: inherit; font-family: Roboto, sans-serif; font-size: 12px; font-weight: 200;" fill="rgb(50, 49, 63)" stroke="none" stroke-width="1px">13</text><text x="0" y="123.23076923076923" dx="0em" dy="0.3em" style="text-anchor: end; visibility: hidden; font-family: Roboto, sans-serif; font-size: 12px; font-weight: 200;" fill="rgb(50, 49, 63)" stroke="none" stroke-width="1px">14</text><text x="0" y="109.53846153846155" dx="0em" dy="0.3em" style="text-anchor: end; visibility: inherit; font-family: Roboto, sans-serif; font-size: 12px; font-weight: 200;" fill="rgb(50, 49, 63)" stroke="none" stroke-width="1px">15</text><text x="0" y="95.84615384615384" dx="0em" dy="0.3em" style="text-anchor: end; visibility: hidden; font-family: Roboto, sans-serif; font-size: 12px; font-weight: 200;" fill="rgb(50, 49, 63)" stroke="none" stroke-width="1px">16</text><text x="0" y="82.15384615384616" dx="0em" dy="0.3em" style="text-anchor: end; visibility: inherit; font-family: Roboto, sans-serif; font-size: 12px; font-weight: 200;" fill="rgb(50, 49, 63)" stroke="none" stroke-width="1px">17</text><text x="0" y="68.46153846153845" dx="0em" dy="0.3em" style="text-anchor: end; visibility: hidden; font-family: Roboto, sans-serif; font-size: 12px; font-weight: 200;" fill="rgb(50, 49, 63)" stroke="none" stroke-width="1px">18</text><text x="0" y="54.769230769230774" dx="0em" dy="0.3em" style="text-anchor: end; visibility: inherit; font-family: Roboto, sans-serif; font-size: 12px; font-weight: 200;" fill="rgb(50, 49, 63)" stroke="none" stroke-width="1px">19</text><text x="0" y="41.076923076923066" dx="0em" dy="0.3em" style="text-anchor: end; visibility: hidden; font-family: Roboto, sans-serif; font-size: 12px; font-weight: 200;" fill="rgb(50, 49, 63)" stroke="none" stroke-width="1px">20</text><text x="0" y="27.384615384615387" dx="0em" dy="0.3em" style="text-anchor: end; visibility: inherit; font-family: Roboto, sans-serif; font-size: 12px; font-weight: 200;" fill="rgb(50, 49, 63)" stroke="none" stroke-width="1px">21</text><text x="0" y="13.692307692307683" dx="0em" dy="0.3em" style="text-anchor: end; visibility: hidden; font-family: Roboto, sans-serif; font-size: 12px; font-weight: 200;" fill="rgb(50, 49, 63)" stroke="none" stroke-width="1px">22</text><text x="0" y="0" dx="0em" dy="0.3em" style="text-anchor: end; visibility: hidden; font-family: Roboto, sans-serif; font-size: 12px; font-weight: 200;" fill="rgb(50, 49, 63)" stroke="none" stroke-width="1px">23</text></g><line x1="30.78125" y1="0" x2="30.78125" y2="178" fill="rgb(0, 0, 0)" stroke="rgb(204, 204, 204)" stroke-width="1px"></line></g></g><g transform="translate(30, 0)" clip-path="url(#clip_0)"><clipPath id="clip_0"><rect width="299" height="178"></rect></clipPath><g><g><g><line x1="0" y1="0" x2="0" y2="178" fill="rgb(0, 0, 0)" stroke="rgb(60, 60, 60)" stroke-width="1px" opacity="0.25"></line><line x1="21.372767857142858" y1="0" x2="21.372767857142858" y2="178" fill="rgb(0, 0, 0)" stroke="rgb(60, 60, 60)" stroke-width="1px" opacity="0.25"></line><line x1="42.745535714285715" y1="0" x2="42.745535714285715" y2="178" fill="rgb(0, 0, 0)" stroke="rgb(60, 60, 60)" stroke-width="1px" opacity="0.25"></line><line x1="64.11830357142857" y1="0" x2="64.11830357142857" y2="178" fill="rgb(0, 0, 0)" stroke="rgb(60, 60, 60)" stroke-width="1px" opacity="0.25"></line><line x1="85.49107142857143" y1="0" x2="85.49107142857143" y2="178" fill="rgb(0, 0, 0)" stroke="rgb(60, 60, 60)" stroke-width="1px" opacity="0.25"></line><line x1="106.86383928571429" y1="0" x2="106.86383928571429" y2="178" fill="rgb(0, 0, 0)" stroke="rgb(60, 60, 60)" stroke-width="1px" opacity="0.25"></line><line x1="128.23660714285714" y1="0" x2="128.23660714285714" y2="178" fill="rgb(0, 0, 0)" stroke="rgb(60, 60, 60)" stroke-width="1px" opacity="0.25"></line><line x1="149.609375" y1="0" x2="149.609375" y2="178" fill="rgb(0, 0, 0)" stroke="rgb(60, 60, 60)" stroke-width="1px" opacity="0.25"></line><line x1="170.98214285714286" y1="0" x2="170.98214285714286" y2="178" fill="rgb(0, 0, 0)" stroke="rgb(60, 60, 60)" stroke-width="1px" opacity="0.25"></line><line x1="192.35491071428572" y1="0" x2="192.35491071428572" y2="178" fill="rgb(0, 0, 0)" stroke="rgb(60, 60, 60)" stroke-width="1px" opacity="0.25"></line><line x1="213.72767857142858" y1="0" x2="213.72767857142858" y2="178" fill="rgb(0, 0, 0)" stroke="rgb(60, 60, 60)" stroke-width="1px" opacity="0.25"></line><line x1="235.10044642857142" y1="0" x2="235.10044642857142" y2="178" fill="rgb(0, 0, 0)" stroke="rgb(60, 60, 60)" stroke-width="1px" opacity="0.25"></line><line x1="256.4732142857143" y1="0" x2="256.4732142857143" y2="178" fill="rgb(0, 0, 0)" stroke="rgb(60, 60, 60)" stroke-width="1px" opacity="0.25"></line><line x1="277.84598214285717" y1="0" x2="277.84598214285717" y2="178" fill="rgb(0, 0, 0)" stroke="rgb(60, 60, 60)" stroke-width="1px" opacity="0.25"></line><line x1="299.21875" y1="0" x2="299.21875" y2="178" fill="rgb(0, 0, 0)" stroke="rgb(60, 60, 60)" stroke-width="1px" opacity="0.25"></line></g><g><line x1="0" y1="178" x2="299.21875" y2="178" fill="rgb(0, 0, 0)" stroke="rgb(60, 60, 60)" stroke-width="1px" opacity="0.25"></line><line x1="0" y1="164.30769230769232" x2="299.21875" y2="164.30769230769232" fill="rgb(0, 0, 0)" stroke="rgb(60, 60, 60)" stroke-width="1px" opacity="0.25"></line><line x1="0" y1="150.6153846153846" x2="299.21875" y2="150.6153846153846" fill="rgb(0, 0, 0)" stroke="rgb(60, 60, 60)" stroke-width="1px" opacity="0.25"></line><line x1="0" y1="136.9230769230769" x2="299.21875" y2="136.9230769230769" fill="rgb(0, 0, 0)" stroke="rgb(60, 60, 60)" stroke-width="1px" opacity="0.25"></line><line x1="0" y1="123.23076923076923" x2="299.21875" y2="123.23076923076923" fill="rgb(0, 0, 0)" stroke="rgb(60, 60, 60)" stroke-width="1px" opacity="0.25"></line><line x1="0" y1="109.53846153846155" x2="299.21875" y2="109.53846153846155" fill="rgb(0, 0, 0)" stroke="rgb(60, 60, 60)" stroke-width="1px" opacity="0.25"></line><line x1="0" y1="95.84615384615384" x2="299.21875" y2="95.84615384615384" fill="rgb(0, 0, 0)" stroke="rgb(60, 60, 60)" stroke-width="1px" opacity="0.25"></line><line x1="0" y1="82.15384615384616" x2="299.21875" y2="82.15384615384616" fill="rgb(0, 0, 0)" stroke="rgb(60, 60, 60)" stroke-width="1px" opacity="0.25"></line><line x1="0" y1="68.46153846153845" x2="299.21875" y2="68.46153846153845" fill="rgb(0, 0, 0)" stroke="rgb(60, 60, 60)" stroke-width="1px" opacity="0.25"></line><line x1="0" y1="54.769230769230774" x2="299.21875" y2="54.769230769230774" fill="rgb(0, 0, 0)" stroke="rgb(60, 60, 60)" stroke-width="1px" opacity="0.25"></line><line x1="0" y1="41.076923076923066" x2="299.21875" y2="41.076923076923066" fill="rgb(0, 0, 0)" stroke="rgb(60, 60, 60)" stroke-width="1px" opacity="0.25"></line><line x1="0" y1="27.384615384615387" x2="299.21875" y2="27.384615384615387" fill="rgb(0, 0, 0)" stroke="rgb(60, 60, 60)" stroke-width="1px" opacity="0.25"></line><line x1="0" y1="13.692307692307683" x2="299.21875" y2="13.692307692307683" fill="rgb(0, 0, 0)" stroke="rgb(60, 60, 60)" stroke-width="1px" opacity="0.25"></line><line x1="0" y1="0" x2="299.21875" y2="0" fill="rgb(0, 0, 0)" stroke="rgb(60, 60, 60)" stroke-width="1px" opacity="0.25"></line></g></g></g><g><g><line x1="0" y1="314.9230769230769" x2="299.21875" y2="314.9230769230769" fill="rgb(0, 0, 0)" stroke="rgb(153, 153, 153)" stroke-width="1.5px"></line></g></g><g><g><line x1="21.372767857142858" y1="0" x2="21.372767857142858" y2="178" fill="rgb(0, 0, 0)" stroke="rgb(153, 153, 153)" stroke-width="1.5px"></line></g></g><g><g><g><g><g><path stroke="rgb(255, 112, 67)" stroke-width="2px" d="M21.58649553571429,141.65344267625073L22.1421875,116.92118664888235L22.398660714285715,107.56509894067115L23.082589285714285,101.29957939380975L23.16808035714286,97.46793176382914L23.296316964285715,95.266453864367L23.63828125,93.12405408615125L23.76651785714286,91.62756502776858L24.407700892857143,88.47241655094771L24.5359375,86.52824935338039L25.390848214285715,83.30724154697087L25.732812499999998,80.08814004592637L25.861049107142854,78.30788251954716L25.903794642857143,77.30745757039529L26.203013392857144,75.93100459611543L26.75870535714286,74.16113490986405L27.314397321428572,72.34210304853386L27.784598214285715,71.11177304159668L27.998325892857142,69.8127117349533L28.1265625,68.92795935460666L28.51127232142857,67.95122463577702L28.981473214285717,66.99357233067978L29.195200892857144,66.51290290808026L29.28069196428571,65.93705913159023L29.3234375,65.70729062593347L29.494419642857142,65.24871441362535L29.83638392857143,64.97431088216204L30.178348214285712,64.38287049133L30.22109375,64.07882825248323L30.43482142857143,63.59340503133742L30.90502232142857,63.03516199617449L31.161495535714288,62.66247336996676L31.375223214285715,62.2490281916903L32.01640625,61.86944089565L32.272879464285715,61.56402997309527L32.48660714285714,61.161179163220645L32.78582589285714,60.85754241004067L32.95680803571428,60.630816902138676L33.04229910714286,60.2006944954181L33.854464285714286,59.783188068387425L34.06819196428571,59.437392135752155L34.1109375,59.05401806371869L34.32466517857143,58.963526208735416L34.53839285714285,58.66237217613557L34.62388392857143,58.558356345409095L34.965848214285714,58.22000514492716L35.00859375,58.18209980420247L35.478794642857146,58.098819701667765L35.86350446428571,57.78189384360753L36.20546875,57.329512752224545L36.889397321428575,56.907708144309005L37.06037946428572,56.65132431661021L37.48783482142857,56.22565775384005L39.36863839285714,55.48960842559051L39.411383928571425,54.80863087191039L39.753348214285715,54.48433635536519L40.13805803571429,54.160882387137306L40.22354910714286,53.818356191033864L40.26629464285714,53.850913969090016L40.39453125,53.6245821245054L40.65100446428572,53.45866604153012L41.035714285714285,53.369667257505256L41.163950892857144,53.101312378428894L41.206696428571426,52.99748305412314L41.63415178571429,52.861977076126216L42.36082589285714,52.545953288569294L42.446316964285714,52.40934405847817L43.25848214285714,51.83456951820741L43.34397321428571,51.580452685984554L43.47220982142858,51.315547964693124L43.81417410714286,51.03945918277474L44.070647321428574,51.20489417045958L44.156138392857144,51.23458212746352L44.284375,51.18639453545499L44.54084821428572,50.97668610528739L44.75457589285715,50.862916194798025L45.18203125,50.6937002220621L45.438504464285714,50.4927417866327L45.69497767857143,50.326787556204394L45.86595982142857,50.114070040671265L46.12243303571428,50.118711870218576L46.20792410714285,50.13825299634239L46.33616071428572,50.09483111721647L46.42165178571428,49.90861375822049L46.46439732142857,49.82038774674419L46.678125,49.80524722136384L46.72087053571428,49.86562103132341L47.105580357142856,49.78125205558038L47.66127232142857,49.66159040101651L47.875,49.53988050075113L47.96049107142857,49.400624373542655L48.4734375,49.24270276321065L48.772656250000004,49.17038866795493L48.815401785714286,49.06561715416087L48.90089285714286,48.93504066978769L49.02912946428572,48.77146258734437L49.11462053571429,48.85756937181765L49.62756696428572,48.7007754957243L49.75580357142857,48.66438420049201L49.92678571428572,48.635017567696046L50.055022321428574,48.50367805864646L50.183258928571426,48.42735015042973L50.354241071428575,48.43538371368033L50.39698660714286,48.396945302013776L50.567968750000006,48.43533843646665L50.78169642857143,48.33578579268678L51.551116071428574,48.409277167844635L51.89308035714286,48.18242367093667L52.0640625,47.975568540189705L52.23504464285714,47.848039488371626L52.27779017857143,47.76316493588657L52.57700892857143,47.70900181985528L52.961718749999996,47.6407145778657L53.132700892857144,47.60126740732639L53.30368303571428,47.42081950764704L53.51741071428572,47.31849477043109L53.68839285714286,47.17976521599959L54.07310267857143,46.89594612347745L54.244084821428565,46.82385084434639L54.28683035714286,46.61170669989206L54.32957589285714,46.66527876659241L54.415066964285714,46.63939224493137L54.457812499999996,46.71670795062472L54.714285714285715,46.591974867092084L54.885267857142864,46.4611214108277L54.928013392857146,46.47132018066882L55.01350446428572,46.44143069576606L55.22723214285715,46.288226548657036L55.26997767857143,46.29493898564708L55.31272321428572,46.26491117815957L55.48370535714285,46.17398905590417L55.6546875,46.1318147686161L55.86841517857143,46.176114571055464L55.911160714285714,46.18755761639382L55.95390625,46.01739871966352L56.93705357142857,45.983069189730806L57.10803571428572,45.92820727405484L57.19352678571428,45.841073299604176L57.407254464285714,45.7188020232571L58.51863839285714,45.55209021147532L58.73236607142857,45.468495314347635L58.81785714285714,45.397852982253404L59.074330357142856,45.223728010618565L59.41629464285714,45.18780231587388L59.67276785714286,45.07573927432749L59.84375,45.08623312476776L60.14296875,44.95953629444452L60.22845982142857,44.91045946634518L60.48493303571429,44.8119313147605L60.570424107142856,44.77563981161775L60.69866071428571,44.744901897036726L60.826897321428575,44.7611412020742L61.16886160714286,44.75810883576528L61.21160714285714,44.733881884241605L61.33984374999999,44.72268856188509L61.639062499999994,44.61846585460401L61.76729910714286,44.46038943989579L62.152008928571426,44.628792914989184L62.322991071428575,44.44416769798688L62.45122767857143,44.46370098312504L62.49397321428571,44.495373581536654L62.87868303571428,44.51199536098631L62.92142857142858,44.4723375739761L63.09241071428571,44.52767439497164L63.17790178571428,44.545541169810505L63.22064732142857,44.549251699144406L63.434374999999996,44.465284755965016L63.56261160714286,44.40430149228844L63.605357142857144,44.31996103171619L63.94732142857143,44.258429819149924L64.11830357142857,44.172956216309686L64.20379464285715,44.09850193554002L64.33203125,44.03234111869329L64.71674107142857,44.080791366490914L64.84497767857142,43.95895279559318L65.18694196428571,43.93130194703742L65.69988839285715,43.897600231849225L65.99910714285714,43.857896663486066L66.55479910714286,44.03789426687168L66.81127232142858,44.03445061511098L66.93950892857143,43.96123398178446L67.025,43.73784526624918L67.19598214285713,43.663178938032246L67.36696428571429,43.64378479014057L67.45245535714285,43.61045112498581L67.66618303571428,43.49863750097553L67.70892857142857,43.399071463551074L68.09363839285714,43.475730508652L68.35011160714285,43.35411341974948L68.52109375,43.451513532431136L68.56383928571428,43.4707691471029L68.99129464285714,43.393705689921916L69.20502232142857,43.303958352354634L69.80345982142858,43.16407338506057L70.74386160714286,43.05750505210755L70.78660714285714,43.12339193319511L70.95758928571429,43.020466481281254L71.00033482142858,42.929377714039205L71.04308035714286,42.82276405142533L71.8125,42.77419385002587L72.32544642857142,42.757033751985176L72.36819196428571,42.73933119432513L72.62466517857143,42.72501163351215L72.71015625,42.74763374543181L72.92388392857143,42.73620877321311L74.03526785714286,42.68766220052642L74.12075892857143,42.57143215918305L74.54821428571428,42.559723896058244L75.01841517857143,42.4730764640998L75.1466517857143,42.474249743393784L75.27488839285714,42.508047911691314L76.12979910714286,42.469429999643985L76.38627232142856,42.398811695699834L76.68549107142857,42.30356102771135L76.94196428571428,42.22715790850634L77.36941964285714,42.19979572166632L77.58314732142857,42.12530686227414L77.62589285714286,42.005597935723856L77.75412946428571,42.013854695553924L78.09609375000001,41.96589772662473L78.22433035714286,42.080197463536436L78.35256696428571,42.13730715656985L78.48080357142857,42.17171922201432L78.52354910714287,42.12666904072061L79.29296875,41.910882898853934L79.93415178571428,41.930993240288906L80.57533482142857,41.74110960665833L80.70357142857144,41.63885850362842L80.74631696428571,41.61134373705536L80.83180803571427,41.585882310817944L80.87455357142858,41.49859840786246L81.81495535714285,41.67487890743532L82.02868303571428,41.627137333568776L82.15691964285715,41.5470647534691L82.32790178571429,41.57926001719564L82.41339285714285,41.60213939842586L82.58437500000001,41.652178719621936L82.75535714285715,41.517828180916794L82.92633928571428,41.46449341264413L83.99497767857142,41.348430356856305L84.03772321428572,41.44492165029918L84.50792410714286,41.34039577206803L84.84988839285715,41.267797949080645L84.89263392857143,41.24790035523566L85.02087053571428,41.221984513396784L85.10636160714286,41.174061609292586L85.53381696428572,41.21576884658518L85.83303571428571,41.15823527598746L86.47421874999999,41.103146168597284L86.51696428571428,41.064827717684814L86.64520089285715,41.005901025142094L87.67109375,40.9045968754143L87.71383928571429,40.94955286401812L87.79933035714285,40.8968204118829L88.09854910714286,40.8552359661427L88.39776785714285,40.880428027063935L88.44051339285716,40.84231884673718L88.82522321428571,40.793170191756246L88.99620535714286,40.72192673100176L89.08169642857143,40.688237684860056L89.25267857142856,40.65320081310202L89.63738839285713,40.68474498361692L89.93660714285714,40.5977658650575L89.97935267857143,40.562470225539876L90.19308035714286,40.64534944958925L90.53504464285713,40.526472059890274L90.91975446428572,40.52220107885785L90.96249999999999,40.49559087342648L91.13348214285713,40.50524977364273L91.34720982142856,40.521898925183265L91.47544642857143,40.50630517823947L91.5609375,40.42389724268589L91.68917410714286,40.431583852485005L91.81741071428573,40.36377091508176L91.98839285714286,40.444282305659684L92.33035714285714,40.36358652488469L92.67232142857144,40.41584103001493L92.84330357142856,40.35102415864901L92.97154017857143,40.33220157357732L93.27075892857142,40.4151972446647L93.65546875,40.50601766696108L93.82645089285714,40.45371635532239L93.86919642857143,40.37287185608709L93.9119419642857,40.34958277035296L93.9974330357143,40.28689774758587L94.12566964285713,40.247719773664194L94.42488839285714,40.25939647038089L94.80959821428571,40.20071551425225L95.23705357142858,40.10948288802849L95.4080357142857,40.07293049772848L95.49352678571428,40.0211328009658L95.62176339285713,40.04696617960292L95.83549107142858,39.98665666933779L95.96372767857143,39.99111791235989L96.0064732142857,39.9786160364409L96.04921875000001,39.94958487689759L96.26294642857144,40.006941524846496L96.86138392857143,40.092772702993834L97.24609375,40.06779330272332L97.5025669642857,40.12069682748736L97.80178571428571,40.10641209626708L97.84453125,40.13881204517011L98.22924107142858,40.11684247800346L98.52845982142857,40.06550003213714L99.04140625000001,40.03475724302773L99.42611607142858,39.90463953493172L99.59709821428571,39.933216225466246L100.02455357142857,39.870008517581425L100.06729910714284,39.771317173912706L100.19553571428571,39.776295506420894L100.40926339285714,39.70022413753641L100.58024553571428,39.6270132620065L101.13593750000001,39.656180209682866L101.26417410714285,39.69466719938993L101.52064732142857,39.6649006003957L101.56339285714286,39.588352756008156L101.60613839285715,39.653364835884055L103.05948660714286,39.65553807126451L103.31595982142858,39.64125598109254L103.61517857142857,39.5751792853953L103.87165178571429,39.45344544308216L104.04263392857142,39.44348051141723L104.128125,39.44185770194498L104.21361607142858,39.43900366394794L104.47008928571428,39.429999652733215L104.59832589285715,39.36590936101347L104.68381696428571,39.33408865108824L104.81205357142858,39.320699960484674L104.94029017857143,39.26185544804561L105.45323660714286,39.26896113165794L105.53872767857142,39.23531454990071L106.05167410714286,39.283989281134865L106.09441964285715,39.21197893338946L106.13716517857142,39.23128399277107L106.73560267857142,39.208059617793026L106.90658482142857,39.25787938264243L107.07756696428572,39.20899492600974L107.24854910714286,39.159262429426434L107.41953124999999,39.11434877376163L107.59051339285715,39.09070164331349L107.93247767857143,39.03190722960291L108.01796875,39.04845518042248L108.14620535714286,39.11918200905728L108.27444196428571,39.122976866191564L108.40267857142857,39.05587922649826L108.61640625,39.03427791619496L109.42857142857143,39.023594445592906L109.94151785714286,39.07974786326918L109.98426339285713,39.09637049342729L110.1125,38.97516860483792L110.15524553571429,38.94058728444723L110.24073660714286,38.88394465582461L110.32622767857143,38.84718033578743L110.49720982142857,38.907063319035515L110.66819196428573,38.935743306174935L110.88191964285714,38.943716679317916L110.9674107142857,38.924432193588345L111.2666294642857,38.86177859762835L111.60859375,38.808986925516585L111.77957589285714,38.762049729303314L112.07879464285713,38.860393336680566L112.12154017857144,38.8747933656652L112.76272321428571,38.85545791918881L112.89095982142857,38.858356256921944L113.01919642857143,38.893147674675994L113.06194196428571,38.947743510154154L113.23292410714286,38.98613162198043L113.31841517857143,38.90926554920989L113.53214285714286,38.830814292153676L113.87410714285714,38.87607928292441L113.91685267857143,38.87440620857677L114.08783482142857,38.88344135604303L114.17332589285714,38.91388157669674L114.25881696428571,38.86124598046066L114.42979910714287,38.867292561796525L114.8572544642857,38.76398069595714L114.94274553571428,38.704312677640374L115.02823660714286,38.680201390200494L115.07098214285715,38.71990965717464L115.24196428571427,38.652370387716786L115.37020089285714,38.629720619423914L115.71216517857144,38.63376428459006L115.88314732142857,38.650909463745336L116.48158482142857,38.55974111751251L116.65256696428571,38.53375726816376L116.73805803571427,38.55960783426812L116.9517857142857,38.53837817900142L116.99453125000001,38.56908697068959L117.08002232142857,38.50371121092187L117.20825892857144,38.497684419799825L117.29375,38.378552034654845L117.37924107142857,38.402061734615046L117.42198660714286,38.4362977707495L117.72120535714285,38.45922117202751L117.84944196428572,38.463500326413595L118.06316964285715,38.43926235217329L118.87533482142858,38.40011829152485L119.30279017857141,38.35651208537913L119.55926339285715,38.254894001903544L119.6875,38.20518437289694L119.81573660714285,38.164410766466524L119.94397321428572,38.142109007769065L119.98671875000001,38.15856287592794L120.02946428571428,38.176625175789646L120.49966517857142,38.30025235532355L120.54241071428571,38.35420442926985L120.62790178571429,38.30312981651621L121.18359375000001,38.30511960790854L121.61104910714285,38.25888681883167L121.99575892857142,38.13086168865479L122.72243303571429,38.04547011471779L123.49185267857142,38.22520511288866L123.53459821428572,38.27191376879238L123.62008928571429,38.236780017397706L123.96205357142858,38.18311743952519L124.04754464285715,38.239494933178705L124.21852678571429,38.158024493335695L124.64598214285715,38.086943625726505L124.98794642857142,38.061730149669685L125.03069196428572,38.02545854690818L125.50089285714286,37.98074484062236L125.84285714285716,37.98485885881301L126.09933035714286,38.01197033143867L126.14207589285715,38.004785043101464L126.22756696428571,37.9190232757106L126.31305803571429,37.955754738788734L126.52678571428572,37.92689874734474L127.59542410714286,37.89189939432781L127.63816964285714,37.820328751680826L128.065625,37.92940240425369L128.15111607142856,37.949645015456355L128.32209821428572,37.96338888164462L128.36484375,37.86361940733711L128.83504464285713,38.005300151576236L128.96328125,38.10652141362458L129.21975446428573,38.010380555882065L129.43348214285714,37.954565947148545L129.51897321428572,37.87537417428371L129.6044642857143,37.7987867745146L129.68995535714285,37.75579066634636L130.24564732142858,37.656220512337896L130.4166294642857,37.59653065194152L130.50212053571428,37.52253513733382L130.63035714285715,37.500096165032524L131.0150669642857,37.52325786616193L131.0578125,37.527648661253636L131.48526785714287,37.52860126762806L131.57075892857142,37.476011092983725L132.08370535714286,37.65758447655346L132.12645089285715,37.763791549438686L132.16919642857144,37.77084406371521L132.34017857142857,37.80406433711735L132.51116071428572,37.83778575145912L132.76763392857143,37.77573229353622L133.49430803571428,37.63689851543218L133.62254464285715,37.544760592695326L133.75078125,37.44891446108592L133.79352678571428,37.411359409449005L134.13549107142856,37.367661968535984L134.39196428571427,37.365929869673295L134.6484375,37.31571939735235L134.86216517857144,37.389085616025596L135.67433035714285,37.34056067419019L135.8453125,37.312281421228356L135.93080357142858,37.27595668702183L136.14453125,37.33450512230177L136.35825892857144,37.313046025228985L136.91395089285714,37.18885371001423L137.21316964285714,37.19449356145776L137.85435267857142,37.39279688244257L138.32455357142857,37.40574789734414L138.36729910714286,37.31051698510121L138.49553571428572,37.338527058360896L138.75200892857143,37.54100744689305L139.05122767857142,38.436344228314624L139.0939732142857,38.91922500810508L139.13671875,39.17794855560673L139.1794642857143,39.32041718117806L139.22220982142858,39.47608772983065L139.60691964285715,39.02311190866908L140.5900669642857,38.343342195907546L140.6328125,37.92192093878856L140.6755580357143,37.7026533661202L140.97477678571428,37.489537764113216L141.44497767857143,37.276968977578534L141.53046874999998,37.1614097284567L142.04341517857142,37.02511274381229L142.0861607142857,36.93789197771763L142.21439732142858,36.85372933195059L142.29988839285716,36.815579391350326L142.34263392857142,36.7557196112225L142.428125,36.71797562284074L143.24029017857143,36.750193731764824L143.5822544642857,36.75765748473951L143.71049107142858,36.74539015453065L144.09520089285715,36.73865654050982L144.13794642857144,36.707288585138215L144.47991071428572,36.69859037520405L144.52265624999998,36.692702879532L144.77912946428572,36.629824373827965L144.90736607142856,36.649740515222234L145.1638392857143,36.79304325557263L145.24933035714287,36.86968581662485L145.33482142857142,36.853577941297054L146.0614955357143,36.77259563140231L146.14698660714285,36.74087718428008L146.18973214285714,36.70468267794337L146.23247767857143,36.72824067929457L146.70267857142858,36.63859047879063L147.13013392857144,36.587652226164124L147.47209821428572,36.54075110226247L148.19877232142858,36.563599314828025L148.49799107142857,36.59951729247253L148.54073660714286,36.61154096066982L148.6689732142857,36.570806177588814L149.3529017857143,36.67185793187629L149.52388392857142,36.551567752665434L149.73761160714287,36.459451464211945L149.82310267857142,36.39555296330032L149.90859375,36.327943045070086L149.99408482142857,36.3545161181328L150.07957589285715,36.34507520573543L150.25055803571428,36.34219984756237L150.2933035714286,36.32691520319636L150.76350446428572,36.3131375534082L150.89174107142858,36.25365225579041L151.23370535714287,36.20433896934715L151.36194196428573,36.16580887758936L151.4046875,36.15231195853981L151.74665178571428,36.10693059929004L152.38783482142856,36.17470136118915L152.47332589285713,36.20639035923151L152.55881696428574,36.25293002664918L152.6443080357143,36.24994292434292L153.1145089285714,36.24146496584373L153.28549107142857,36.145494495582L153.84118303571427,36.093678627186954L154.82433035714286,36.07652460607477L155.46551339285713,36.16479399385068L155.50825892857142,36.256793829829036L155.76473214285716,36.1600508180672L155.80747767857142,36.08436103846652L155.89296875,36.12992488348407L156.02120535714286,36.07122662574102L156.23493303571428,36.03380348032738L156.40591517857143,35.963170788241456L156.49140625,35.93708755970867L157.17533482142855,36.12348147869628L157.6455357142857,36.2285590081613L157.9447544642857,36.074738225659985L157.9875,36.162552168606595L158.28671875,36.193804517998394L158.41495535714287,36.2561174229009L159.4408482142857,36.05523318849116L159.56908482142856,36.034256856454064L159.86830357142856,35.95456337243611L159.99654017857142,35.950914668593896L160.0392857142857,35.9688556624469L160.1247767857143,36.09748700962257L160.16752232142855,35.96005494052415L160.46674107142857,36.08481052403502L161.0224330357143,36.078860956661075L161.2361607142857,35.997768468903494L161.6208705357143,35.865301495066554L161.70636160714287,35.76755055411627L161.79185267857142,35.70229786364464L162.09107142857144,35.75940984142147L162.64676339285714,35.781381613236306L162.7322544642857,35.87750910616295L162.98872767857142,35.77384092700157L163.3306919642857,35.6488989306375L163.58716517857144,35.563288849443225L163.6299107142857,35.48228635898232L163.84363839285714,35.488841865907766L164.05736607142856,35.47421191416602L164.35658482142856,35.543416332130974L164.69854910714284,35.45349190978039L164.86953125000002,35.41831988670358L165.04051339285715,35.4552568809404L165.59620535714285,35.372840149635444L165.68169642857143,35.291162961476005L165.7671875,35.257471073535186L165.89542410714284,35.235103982011736L166.1091517857143,35.17930267522716L166.83582589285714,35.34433486347465L167.04955357142856,35.323042967551466L167.8189732142857,35.467026534549845L167.98995535714283,35.31172872402766L168.1181919642857,35.219291732238126L168.33191964285714,35.15070885657547L168.63113839285717,35.21734510435995L168.8021205357143,35.28751695406728L168.88761160714284,35.294896224498636L169.14408482142858,35.23325029573433L169.18683035714284,35.130816031557174L169.44330357142857,35.08674873195264L169.74252232142857,35.08964184828365L169.9989955357143,35.07312785423758L170.12723214285717,35.096334551334635L170.38370535714284,35.06471225799427L170.85390625,35.047086467814864L170.93939732142857,35.02143683599241L171.36685267857143,34.99601851122588L171.4950892857143,35.01383037788186L171.58058035714285,35.1528828824908L171.7943080357143,35.08426700788992L172.47823660714286,34.94643692780335L172.56372767857144,34.93305075531482L172.82020089285717,34.96023387209666L172.9911830357143,35.20631234849837L173.07667410714285,35.312758825865885L173.67511160714284,35.294559780195044L174.1880580357143,35.14249901884567L174.40178571428572,35.07833963535338L174.91473214285713,34.873182111853524L174.95747767857145,34.7339687998645L175.21395089285713,34.65612365521919L175.25669642857144,34.641466128978884L175.85513392857143,34.633131254911376L176.0261160714286,34.633165496110905L176.11160714285714,34.614977962592924L176.19709821428572,34.73747643913929L176.32533482142858,34.67040874321617L176.45357142857145,34.603634265235584L176.83828125,34.625067545507065L177.09475446428573,34.71908560880961L177.1802455357143,34.68423668116616L177.65044642857143,34.667077582805774L177.69319196428572,34.5515659654362L177.94966517857145,34.55250060033292L178.24888392857144,34.48555673320906L179.27477678571427,34.47607149485333L179.53125,34.8627158620938L179.61674107142858,34.88350757840409L180.5143973214286,34.70146016133783L180.64263392857143,34.5189919884794L180.81361607142858,34.35529425971926L180.85636160714284,34.22345910165488L180.89910714285713,34.17180070419454L181.15558035714287,34.34999486061766L181.2838169642857,34.54419104103256L181.36930803571428,34.49016079442875L181.75401785714286,34.53158826038621L182.05323660714285,34.73779427421549L182.26696428571427,34.63416239498303L182.60892857142858,34.43918860848923L182.77991071428573,34.290520400107084L182.95089285714286,34.22852190521598L183.5065848214286,34.300195207244656L183.59207589285714,34.22641886337925L183.7203125,34.24199004624271L184.23325892857144,34.2710973480581L184.40424107142857,34.226625013214374L184.61796875,34.26216038108819L184.7034598214286,34.27811215131666L185.1309151785714,34.07236198073143L185.21640625,33.9904781109148L185.30189732142858,33.916339103252604L185.85758928571428,33.87660881144828L186.54151785714285,34.18198898728965L186.75524553571427,34.073177485673085L187.0544642857143,34.1196775297527L188.12310267857143,33.998643206553545L188.16584821428572,33.833415261184186L188.20859375,33.880507225558155L188.5078125,33.88260461421862L188.93526785714286,33.84552475301886L189.27723214285714,33.69264458250544L189.57645089285714,33.59082525611384L189.74743303571427,33.62820144310636L190.21763392857142,33.696612215773676L190.47410714285715,33.67271339973919L190.73058035714286,33.80980514978188L190.85881696428572,33.77136247407136L191.5,33.798732096259215L191.67098214285716,33.870770512450505L192.14118303571428,33.771253928751904L192.35491071428572,33.65689885101614L192.56863839285714,33.606556561022856L192.7396205357143,33.49462898619302L192.78236607142856,33.492428167331816L193.25256696428573,33.510642447274115L193.2953125,33.55238790038071L193.76551339285714,33.45272602823925L193.85100446428572,33.465938806734705L193.89375,33.46119498851796L194.19296875,33.323799043140816L194.27845982142856,33.30084328743794L194.32120535714287,33.33669024229451L194.36395089285713,33.30473373108883L194.40669642857142,33.28192447655892L194.66316964285716,33.29808429362013L195.60357142857143,33.297688959773325L196.33024553571428,33.295425157527134L196.5439732142857,33.25902964473414L196.58671875000002,33.16771331906704L196.67220982142857,33.09887311332273L197.01417410714288,33.13756753442242L197.5271205357143,33.121516162931066L199.49341517857144,33.026130828129716L200.09185267857143,33.25119274154433L200.1345982142857,33.26760055140198L200.60479910714284,33.127727407538856L200.64754464285716,32.98401876404705L200.7330357142857,32.88143451282277L200.81852678571428,32.80035963723097L200.94676339285715,32.679394272610516L200.98950892857144,32.66489704752815L201.07500000000002,32.68376676667796L202.05814732142858,32.62927626718826L202.27187500000002,32.60128284827866L202.40011160714283,32.58515536664446L202.5283482142857,32.65644893757228L202.74207589285714,32.68237503411784L203.2122767857143,32.899504460074084L203.59698660714284,32.79516637890656L203.7252232142857,32.72912666403259L203.76796875000002,32.64070769256767L204.15267857142857,32.598457889090795L204.4091517857143,32.50698228397282L205.09308035714284,32.60438456550841L205.34955357142857,32.52767038868155L205.5205357142857,32.500351388106786L205.9052455357143,32.49719557877006L205.99073660714285,32.379482837045686L206.37544642857142,32.28885033267366L206.54642857142858,32.317289903067206L206.80290178571428,32.324199742809355L207.0166294642857,32.47685169383013L207.27310267857143,32.48971878090893L207.65781249999998,32.577218203265915L207.95703124999997,32.49087473111669L208.12801339285716,32.34112318508675L208.5127232142857,32.29740356756498L209.15390624999998,32.24681078818774L209.453125,32.13822201790961L209.58136160714284,32.06119119696121L209.66685267857144,32.06815533566471L209.7095982142857,32.2198161186915L209.88058035714286,32.37724125718999L209.92332589285715,32.48305157898346L210.47901785714285,32.291624676732L210.73549107142858,32.15357752351216L210.77823660714284,32.05081749705499L210.86372767857142,31.97470366116872L211.12020089285713,31.878286739970473L211.2484375,31.810679648023747L212.4025669642857,31.78832347109339L212.65904017857144,31.74948322309325L212.83002232142857,31.723191403394694L212.95825892857144,31.666549987957808L213.30022321428572,31.788770183955567L213.3857142857143,32.056854569245026L213.94140625,31.91497892431444L214.11238839285713,31.921760979889125L214.15513392857144,31.89065717856596L214.96729910714285,31.87719720584001L215.01004464285714,31.812898688024735L215.13828125,31.75122258308229L215.4375,31.621640907872226L215.52299107142858,31.54551109501632L215.86495535714286,31.528717508121602L215.95044642857144,31.46444542374314L215.99319196428573,31.45602004214405L216.54888392857143,31.358127640896413L216.634375,31.3855645681241L217.06183035714287,31.957169405875945L217.1900669642857,31.917888022356713L217.66026785714286,31.843351198142127L217.78850446428572,31.751484492548155L217.87399553571427,31.600090430730248L217.95948660714285,31.43448909636634L218.47243303571426,31.282488877366067L219.19910714285714,31.44257693988872L219.84029017857145,31.28432257337583L220.09676339285713,31.072453825162814L220.39598214285712,31.22071017257666L220.65245535714286,31.33413990030829L220.73794642857143,31.288311065147422L220.9089285714286,31.07787637673118L221.20814732142858,31.136088572057314L221.25089285714287,31.146184792310418L221.29363839285713,31.07803128648145L221.72109375,31.179638549157495L222.61875,31.180013776654928L222.83247767857142,31.112838729108926L223.04620535714287,31.244690401302492L223.30267857142857,31.167356092118627L223.7301339285714,31.02927788491362L223.94386160714285,30.83775704326034L224.20033482142858,30.93891791191624L224.3713169642857,30.969539242492306L224.4140625,31.03320763879464L224.75602678571428,30.972345448849193L224.88426339285715,30.84409828117852L224.9270089285714,30.753130909437246L225.0125,30.646767672953516L225.14073660714286,30.61710946476222L225.18348214285714,30.57901718126116L225.2262276785714,30.568906421286748L225.52544642857143,30.493329608105554L225.65368303571427,30.639246689705583L225.69642857142858,30.77613529409682L225.73917410714287,30.91326876190729L225.78191964285713,31.00659068923574L225.8674107142857,31.127946981337413L225.99564732142858,31.299437467460766L226.03839285714287,31.436543724842426L226.2948660714286,31.105808986370295L226.55133928571428,30.841869204359757L226.63683035714286,30.647945783620944L226.76506696428572,30.522231755216183L227.61997767857142,30.571303554143785L227.70546875,30.517123187549373L227.96194196428573,30.693668359269452L228.26116071428572,30.85775058080356L228.77410714285713,30.759964256985764L229.32979910714286,30.574347788716693L229.58627232142857,30.338143406928918L229.67176339285714,30.228668820036233L230.35569196428574,30.335078090211333L230.48392857142855,30.54106784083052L230.56941964285716,30.54109120498659L230.61216517857142,30.777193902867257L231.42433035714288,30.583055937573747L231.80904017857142,30.426344065286116L232.4502232142857,30.247805551814395L232.57845982142857,30.226833918904138L233.1341517857143,30.123555279227094L233.47611607142855,30.14979751173698L233.81808035714286,30.025487943077376L233.86082589285715,29.970092241883098L233.98906250000002,29.946601313992545L234.07455357142857,29.996950609609467L234.11729910714288,29.91280342710132L234.71573660714287,29.859619945946786L235.05770089285716,29.958707735108632L235.69888392857143,29.82259332157901L235.99810267857143,29.71210305105288L236.25457589285716,29.761638591261242L236.3828125,29.999003042827685L236.68203125000002,30.019658455053563L237.2377232142857,29.875575050683853L237.3232142857143,29.77042594894249L237.36595982142856,29.73739078571165L237.40870535714288,29.626800903030055L237.66517857142856,29.716568447467093L238.4345982142857,29.493891827194233L239.1185267857143,29.808070865735115L239.4177455357143,29.624226745139698L239.6314732142857,29.55809810575271L239.67421875000002,29.571394625358206L239.9306919642857,29.507156561873597L240.3154017857143,29.29016828921245L240.48638392857143,29.493476701254295L240.571875,29.404057916410633L240.8283482142857,29.25580403132175L240.95658482142858,29.19799242386365L241.93973214285717,29.119064948008113L242.15345982142856,29.01399209286587L242.70915178571428,29.23122533853952L242.88013392857144,29.255993949931092L243.0083705357143,29.22490139549953L243.64955357142858,29.23012633722463L243.99151785714284,29.036315290202896L244.1625,29.020105190685715L244.20524553571428,29.05063956329214L244.97466517857143,28.891862338110503L245.1029017857143,28.73829463487506L245.14564732142858,28.674421976049757L245.23113839285716,28.657607521942968L245.3166294642857,28.75286036465317L245.35937499999997,28.73131932595081L245.53035714285716,28.825459874191292L245.57310267857144,28.884075269091078L246.04330357142857,28.802714894590164L246.2997767857143,28.718955456060012L246.47075892857143,28.623435534190374L247.45390625,28.572025798053303L248.00959821428572,28.552629212681126L248.3515625,28.89337973144733L248.6080357142857,28.77283203808713L248.6935267857143,28.652073903591468L248.73627232142857,28.61424884467142L249.16372767857143,28.47093965479712L249.20647321428572,28.47908666697686L249.84765625,28.370767218598075L249.97589285714284,28.259351740225878L250.44609375,28.461465958874104L250.4888392857143,28.654114753171484L250.61707589285712,28.615515140026403L251.04453124999998,28.585178694142044L251.34375,28.446676064141464L251.51473214285713,28.23091563040947L251.6857142857143,28.040253902359268L252.07042410714286,27.996108917249373L252.2841517857143,27.928003461640174L252.36964285714285,27.970523366985613L252.45513392857143,28.074738500923058L252.83984375,28.380700081097682L253.05357142857144,28.28847113038937L253.26729910714286,28.142845509701473L253.86573660714285,28.23184718431395L253.90848214285714,28.302307163127452L253.99397321428572,28.224731583220528L254.20770089285713,28.14196856043412L254.5924107142857,28.102224382016207L254.84888392857144,28.04305859067307L255.40457589285714,28.032463337622016L255.7892857142857,28.07227928149447L255.87477678571426,28.028413486114246L256.04575892857144,27.92143734103001L256.08850446428573,27.884861493785674L256.25948660714283,27.741225851537326L256.51595982142857,27.709919414543187L256.77243303571424,27.60764790961835L256.98616071428575,27.518727398865995L257.11439732142856,27.409570414304586L257.19988839285713,27.59427799170923L257.67008928571425,27.963274910823287L257.84107142857147,28.213630487922742L258.22578125,28.364157226234685L258.3967633928571,28.188163149592995L258.56774553571427,27.870400284211925L258.7814732142857,27.595032693251014L258.99520089285716,27.373077730809367L259.2944196428571,27.420460361066763L259.50814732142857,27.286594641745236L259.59363839285714,27.26798210524693L259.6791294642857,27.438905812126574L259.721875,27.623495629140447L260.1065848214286,27.514676601117085L260.14933035714284,27.611419321735443L260.19207589285713,27.523340686528396L260.44854910714287,27.39312745409704L260.9614955357143,27.193121345505087L261.1752232142857,27.327414437974625L261.5171875,27.267653332443743L261.6026785714286,27.145227337882705L262.0301339285714,27.028502745127458L262.115625,27.009624018808776L262.7568080357143,27.03643659578044L263.2270089285714,26.972233098168335L263.3125,27.011453121370977L263.48348214285716,26.910766972169018L263.56897321428573,26.931805877036386L263.99642857142857,26.97546547953464L264.12466517857143,26.891827773109913L264.46662946428575,27.07275089501081L265.02232142857144,27.004029330576206L265.1078125,27.04194877792051L265.57801339285714,26.81319287796776L265.87723214285717,26.637809971634894L266.00546875,26.59375435644093L266.17645089285713,26.61777710774227L266.7748883928571,26.527496920256823L267.2450892857143,26.47450925116252L267.54430803571427,26.39768221179278L267.8435267857143,26.544144511495706L268.2709821428571,26.486399051023003L268.39921875,26.573535926256877L268.57020089285714,26.497452666781793L268.61294642857143,26.472967121027626L268.8266741071429,26.462788639127986L269.08314732142856,26.528009581088L269.16863839285713,26.421383502746867L269.59609375,26.2914492751382L269.63883928571425,26.113422656278836L270.36551339285717,26.121611121749563L270.49375000000003,26.07727986321653L270.7074776785714,26.050211020018228L270.79296875,26.080863611522627L271.2204241071429,25.9707435321855L271.3059151785714,25.89795444826262L271.8188616071429,25.95434708020307L271.9470982142857,25.96406191774321L272.03258928571427,25.923665492555457L272.3318080357143,26.073548261691602L272.7592633928571,26.808522337987043L273.10122767857143,26.877155240044313L273.18671875,26.728189576756467L273.2722098214286,26.60264473595021L273.4004464285714,26.367038689526833L273.48593750000003,26.369960762544263L273.8706473214286,26.13157212309149L274.2981026785714,25.873732984266564L274.3408482142857,25.77512667833039L274.6828125,25.881632380007563L274.7683035714286,25.799380194230547L274.9392857142857,25.616680564517583L274.98203125000003,25.4822087969437L275.06752232142856,25.507023947599862L275.7941964285714,25.49447034061519L276.00792410714286,25.57289116996409L276.09341517857143,25.646425295991367L276.1361607142857,25.59732208245509L276.2643973214286,25.48582456144722L276.64910714285713,25.352727200998476L277.4185267857143,25.709789537621372L277.8032366071428,25.696347613611007" style="fill: none;" fill="none"></path></g></g></g></g><g opacity="0.2"><g><g><g><path stroke="rgb(255, 112, 67)" stroke-width="2px" d="M21.58649553571429,141.65344267625073L22.1421875,102.0818330324613L22.398660714285715,98.58325474078839L23.082589285714285,93.93132840670071L23.16808035714286,92.4653326181265L23.296316964285715,92.22101739736704L23.63828125,90.0603881249061L23.76651785714286,89.44566961435171L24.407700892857143,83.81918540367712L24.5359375,83.64138764601486L25.390848214285715,78.50494414109451L25.732812499999998,75.27700600257288L25.861049107142854,75.64330907968375L25.903794642857143,75.80878008328952L26.203013392857144,73.86794310349686L26.75870535714286,71.5075786297138L27.314397321428572,69.61432500985953L27.784598214285715,69.26659041184647L27.998325892857142,67.86431767390326L28.1265625,67.60091165395883L28.51127232142857,66.48617612398587L28.981473214285717,65.557125384991L29.195200892857144,65.79190826416016L29.28069196428571,65.07330028827374L29.3234375,65.36263950054462L29.494419642857142,64.56085205078125L29.83638392857143,64.5627062870906L30.178348214285712,63.495710813082184L30.22109375,63.62276517427884L30.43482142857143,62.86527046790491L30.90502232142857,62.19779762854944L31.161495535714288,62.103440504807686L31.375223214285715,61.62886047363281L32.01640625,61.300059978778535L32.272879464285715,61.105913602388824L32.48660714285714,60.55690295879657L32.78582589285714,60.402087284968445L32.95680803571428,60.29072864239032L33.04229910714286,59.55551088773288L33.854464285714286,59.156928429236785L34.06819196428571,58.91869823749249L34.1109375,58.478956956129814L34.32466517857143,58.82778842632587L34.53839285714285,58.21064112736628L34.62388392857143,58.402332599346465L34.965848214285714,57.71247834425705L35.00859375,58.12524179311899L35.478794642857146,57.97389954787033L35.86350446428571,57.30650505652795L36.20546875,56.65094111515925L36.889397321428575,56.275001232440644L37.06037946428572,56.26674857506384L37.48783482142857,55.58715790968674L39.36863839285714,54.38553443321814L39.411383928571425,53.787164541391235L39.753348214285715,53.99789458054764L40.13805803571429,53.675701434795684L40.22354910714286,53.304566896878754L40.26629464285714,53.89975063617413L40.39453125,53.28508435762845L40.65100446428572,53.209791917067314L41.035714285714285,53.23616908146784L41.163950892857144,52.69878005981445L41.206696428571426,52.84173906766452L41.63415178571429,52.65871810913086L42.36082589285714,52.07191760723407L42.446316964285714,52.20443021334134L43.25848214285714,50.97240770780124L43.34397321428571,51.19927743765024L43.47220982142858,50.918190882756164L43.81417410714286,50.625326009897094L44.070647321428574,51.45304665198694L44.156138392857144,51.27911406296951L44.284375,51.11411314744217L44.54084821428572,50.662123460036064L44.75457589285715,50.692261329063996L45.18203125,50.43987626295822L45.438504464285714,50.191304133488586L45.69497767857143,50.07785621056189L45.86595982142857,49.79499376737155L46.12243303571428,50.12567461453952L46.20792410714285,50.167564685528106L46.33616071428572,50.02969829852765L46.42165178571428,49.62928771972656L46.46439732142857,49.688048729529754L46.678125,49.782536433293274L46.72087053571428,49.956181746262764L47.105580357142856,49.65469859196589L47.66127232142857,49.482097919170684L47.875,49.35731565035306L47.96049107142857,49.19174018272986L48.4734375,49.005820347712586L48.772656250000004,49.06191752507136L48.815401785714286,48.908459883469796L48.90089285714286,48.739175943227906L49.02912946428572,48.52609546367938L49.11462053571429,48.98672954852765L49.62756696428572,48.46558468158429L49.75580357142857,48.609797257643486L49.92678571428572,48.590967618502106L50.055022321428574,48.30666879507211L50.183258928571426,48.31285828810471L50.354241071428575,48.44743405855618L50.39698660714286,48.33928768451398L50.567968750000006,48.49292813814603L50.78169642857143,48.18645682701697L51.551116071428574,48.51951423058142L51.89308035714286,47.842143425574676L52.0640625,47.66528584406927L52.23504464285714,47.65674591064453L52.27779017857143,47.635853107158965L52.57700892857143,47.62775714580829L52.961718749999996,47.53828371488132L53.132700892857144,47.542096651517426L53.30368303571428,47.150147658128L53.51741071428572,47.16500766460712L53.68839285714286,46.97167088435247L54.07310267857143,46.47021748469427L54.244084821428565,46.71570792564978L54.28683035714286,46.29349048321063L54.32957589285714,46.74563686664288L54.415066964285714,46.60056246243991L54.457812499999996,46.83268150916467L54.714285714285715,46.40487524179312L54.885267857142864,46.26484122643103L54.928013392857146,46.48661833543045L55.01350446428572,46.39659646841196L55.22723214285715,46.05842032799353L55.26997767857143,46.30500764113205L55.31272321428572,46.219869466928344L55.48370535714285,46.03760587252103L55.6546875,46.06855333768405L55.86841517857143,46.24256427471454L55.911160714285714,46.2047221844013L55.95390625,45.762160374568055L56.93705357142857,45.931574894831726L57.10803571428572,45.84591440054086L57.19352678571428,45.71037233792819L57.407254464285714,45.53539510873648L58.51863839285714,45.30202249380258L58.73236607142857,45.3431029686561L58.81785714285714,45.29188948411209L59.074330357142856,44.96254055316632L59.41629464285714,45.13391377375677L59.67276785714286,44.907644712007965L59.84375,45.10197390042819L60.14296875,44.769491048959594L60.22845982142857,44.83684422419622L60.48493303571429,44.664139087383575L60.570424107142856,44.721202556903535L60.69866071428571,44.69879502516525L60.826897321428575,44.7855001596304L61.16886160714286,44.75356028630183L61.21160714285714,44.697541456956124L61.33984374999999,44.70589857835037L61.639062499999994,44.4621317936824L61.76729910714286,44.22327481783353L62.152008928571426,44.88139812762921L62.322991071428575,44.16722987248347L62.45122767857143,44.493000910832336L62.49397321428571,44.542882479154144L62.87868303571428,44.536928030160766L62.92142857142858,44.412850893460785L63.09241071428571,44.610679626464844L63.17790178571428,44.57234133206882L63.22064732142857,44.55481749314529L63.434374999999996,44.33933434119592L63.56261160714286,44.31282659677359L63.605357142857144,44.19345034085788L63.94732142857143,44.166133000300476L64.11830357142857,44.044745812049285L64.20379464285715,43.98682051438553L64.33203125,43.93309989342322L64.71674107142857,44.15346673818735L64.84497767857142,43.77619493924655L65.18694196428571,43.889825674203735L65.69988839285715,43.847047659067016L65.99910714285714,43.798341310941254L66.55479910714286,44.307890671950126L66.81127232142858,44.02928513746994L66.93950892857143,43.85140903179462L67.025,43.40276219294622L67.19598214285713,43.55117944570688L67.36696428571429,43.61469356830304L67.45245535714285,43.5604506272536L67.66618303571428,43.330917064960175L67.70892857142857,43.24972240741437L68.09363839285714,43.590719076303344L68.35011160714285,43.17168778639572L68.52109375,43.59761370145358L68.56383928571428,43.499652569110566L68.99129464285714,43.27811050415039L69.20502232142857,43.1693373460036L69.80345982142858,42.9542459341196L70.74386160714286,42.89765255267804L70.78660714285714,43.22222225482648L70.95758928571429,42.86607830341046L71.00033482142858,42.792744563176086L71.04308035714286,42.662843557504516L71.8125,42.70133854792669L72.32544642857142,42.73129360492413L72.36819196428571,42.71277735783503L72.62466517857143,42.703532292292664L72.71015625,42.78156691331131L72.92388392857143,42.71907131488507L74.03526785714286,42.6148423414964L74.12075892857143,42.39708709716797L74.54821428571428,42.54216150137094L75.01841517857143,42.34310531616211L75.1466517857143,42.47600966233475L75.27488839285714,42.558745164137626L76.12979910714286,42.41150313157303L76.38627232142856,42.29288423978366L76.68549107142857,42.16068502572867L76.94196428571428,42.11255322969876L77.36941964285714,42.15875244140625L77.58314732142857,42.01357357318585L77.62589285714286,41.82603454589844L77.75412946428571,42.02623983529898L78.09609375000001,41.893962273230926L78.22433035714286,42.25164706890399L78.35256696428571,42.22297169612005L78.48080357142857,42.22333732018103L78.52354910714287,42.05909376878006L79.29296875,41.587203686053925L79.93415178571428,41.961158752441406L80.57533482142857,41.45628415621243L80.70357142857144,41.48548184908353L80.74631696428571,41.57007158719577L80.83180803571427,41.547690171461845L80.87455357142858,41.36767255342923L81.81495535714285,41.93929965679462L82.02868303571428,41.55552497276892L82.15691964285715,41.42695588331955L82.32790178571429,41.62755291278546L82.41339285714285,41.63645847027118L82.58437500000001,41.727237701416016L82.75535714285715,41.31630237285907L82.92633928571428,41.38449126023514L83.99497767857142,41.17433577317459L84.03772321428572,41.5896585904635L84.50792410714286,41.18360695472131L84.84988839285715,41.15890121459961L84.89263392857143,41.21805396446814L85.02087053571428,41.18311075063852L85.10636160714286,41.10217725313626L85.53381696428572,41.27832970252405L85.83303571428571,41.07193492009089L86.47421874999999,41.020512507512024L86.51696428571428,41.0073500413161L86.64520089285715,40.917510986328125L87.67109375,40.75264065082257L87.71383928571429,41.01698684692383L87.79933035714285,40.817721733680145L88.09854910714286,40.792859297532296L88.39776785714285,40.91821611844577L88.44051339285716,40.785155076247L88.82522321428571,40.71944720928485L88.99620535714286,40.61506153987005L89.08169642857143,40.63770411564753L89.25267857142856,40.600645505464996L89.63738839285713,40.73206123938928L89.93660714285714,40.46729718721829L89.97935267857143,40.50952676626352L90.19308035714286,40.7696682856633L90.53504464285713,40.3481559753418L90.91975446428572,40.5157946073092L90.96249999999999,40.45567556527945L91.13348214285713,40.5197381239671L91.34720982142856,40.54687265249399L91.47544642857143,40.48291455782376L91.5609375,40.30028533935547L91.68917410714286,40.443113767183746L91.81741071428573,40.26205150897687L91.98839285714286,40.565049391526436L92.33035714285714,40.2425428537222L92.67232142857144,40.49422278771033L92.84330357142856,40.25379885160007L92.97154017857143,40.303967695969796L93.27075892857142,40.53969075129583L93.65546875,40.64224830040564L93.82645089285714,40.37526438786433L93.86919642857143,40.25160510723407L93.9119419642857,40.3146491417518L93.9974330357143,40.19287021343524L94.12566964285713,40.18895281278171L94.42488839285714,40.276911515455986L94.80959821428571,40.112694080059356L95.23705357142858,39.9726339486929L95.4080357142857,40.01810191227839L95.49352678571428,39.94343625582181L95.62176339285713,40.085716247558594L95.83549107142858,39.89619240394006L95.96372767857143,39.997809776893035L96.0064732142857,39.95986322256235L96.04921875000001,39.90603813758264L96.26294642857144,40.092976496769836L96.86138392857143,40.221519470214844L97.24609375,40.03032420231745L97.5025669642857,40.20005211463342L97.80178571428571,40.08498499943659L97.84453125,40.18741196852463L98.22924107142858,40.0838881272536L98.52845982142857,39.988486363337586L99.04140625000001,39.98864305936374L99.42611607142858,39.70946297278772L99.59709821428571,39.976081261268035L100.02455357142857,39.77519695575421L100.06729910714284,39.6232801584097L100.19553571428571,39.78376300518329L100.40926339285714,39.58611708420975L100.58024553571428,39.5171969487117L101.13593750000001,39.69993063119742L101.26417410714285,39.75239768395056L101.52064732142857,39.6202507019043L101.56339285714286,39.47353098942683L101.60613839285715,39.750882955697875L103.05948660714286,39.658797924335175L103.31595982142858,39.619832845834594L103.61517857142857,39.47606424184946L103.87165178571429,39.270844679612374L104.04263392857142,39.42853311391977L104.128125,39.43942348773663L104.21361607142858,39.43472260695236L104.47008928571428,39.4164936359112L104.59832589285715,39.269773923433746L104.68381696428571,39.28635758620041L104.81205357142858,39.300616924579316L104.94029017857143,39.173588679387024L105.45323660714286,39.279619657076324L105.53872767857142,39.18484467726486L106.05167410714286,39.35700137798602L106.09441964285715,39.10396341177133L106.13716517857142,39.260241581843445L106.73560267857142,39.17322305532602L106.90658482142857,39.332609029916625L107.07756696428572,39.1356682410607L107.24854910714286,39.08466368455154L107.41953124999999,39.046978290264434L107.59051339285715,39.055230947641235L107.93247767857143,38.94371560903696L108.01796875,39.07327710665189L108.14620535714286,39.22527225200946L108.27444196428571,39.128669151893035L108.40267857142857,38.955232766958375L108.61640625,39.00187595073993L109.42857142857143,39.00756923968976L109.94151785714286,39.16397798978366L109.98426339285713,39.12130443866437L110.1125,38.79336577195389L110.15524553571429,38.888715303861176L110.24073660714286,38.798980712890625L110.32622767857143,38.79203385573166L110.49720982142857,38.996887793907746L110.66819196428573,38.978763286884L110.88191964285714,38.95567673903244L110.9674107142857,38.89550546499399L111.2666294642857,38.76779820368841L111.60859375,38.729799417349L111.77957589285714,38.69164393498347L112.07879464285713,39.0079087477464L112.12154017857144,38.89639340914212L112.76272321428571,38.82645474947415L112.89095982142857,38.86270376352164L113.01919642857143,38.9453348013071L113.06194196428571,39.0296372633714L113.23292410714286,39.043713789719796L113.31841517857143,38.79396644005408L113.53214285714286,38.71313740656927L113.87410714285714,38.943976769080535L113.91685267857143,38.8718965970553L114.08783482142857,38.89699407724234L114.17332589285714,38.95954190767728L114.25881696428571,38.782292586106514L114.42979910714287,38.876362433800324L114.8572544642857,38.60901289719803L114.94274553571428,38.61481065016525L115.02823660714286,38.64403445904071L115.07098214285715,38.77947205763596L115.24196428571427,38.55106148352991L115.37020089285714,38.59574596698468L115.71216517857144,38.639829782339234L115.88314732142857,38.67662723247821L116.48158482142857,38.4229885981633L116.65256696428571,38.494781494140625L116.73805803571427,38.598383683424736L116.9517857142857,38.50653369610126L116.99453125000001,38.615150158221894L117.08002232142857,38.40564757127029L117.20825892857144,38.48864423311673L117.29375,38.19985345693735L117.37924107142857,38.4373262845553L117.42198660714286,38.48765182495117L117.72120535714285,38.49360627394455L117.84944196428572,38.4699190579928L118.06316964285715,38.402905390812805L118.87533482142858,38.341402200552125L119.30279017857141,38.29110277616061L119.55926339285715,38.102466876690215L119.6875,38.130619929387024L119.81573660714285,38.10325035682092L119.94397321428572,38.10865636972281L119.98671875000001,38.18324367816632L120.02946428571428,38.203718625582184L120.49966517857142,38.48569312462439L120.54241071428571,38.4351325401893L120.62790178571429,38.22651789738581L121.18359375000001,38.308104294997L121.61104910714285,38.18953763521634L121.99575892857142,37.938823993389434L122.72243303571429,37.91738275381235L123.49185267857142,38.49480761014499L123.53459821428572,38.34197675264798L123.62008928571429,38.18407939030573L123.96205357142858,38.10262357271634L124.04754464285715,38.32406117365911L124.21852678571429,38.03581883357122L124.64598214285715,37.98032232431265L124.98794642857142,38.02390993558444L125.03069196428572,37.97105114276593L125.50089285714286,37.913674281193664L125.84285714285716,37.991029886099L126.09933035714286,38.052637540377106L126.14207589285715,37.9940071105957L126.22756696428571,37.79038062462439L126.31305803571429,38.010851933405945L126.52678571428572,37.88361476017878L127.59542410714286,37.83940036480243L127.63816964285714,37.71297278771033L128.065625,38.093012883112976L128.15111607142856,37.980008932260375L128.32209821428572,37.98400468092697L128.36484375,37.71396519587591L128.83504464285713,38.21782126793494L128.96328125,38.25835330669696L129.21975446428573,37.86616926926834L129.43348214285714,37.87084403404822L129.51897321428572,37.75658651498648L129.6044642857143,37.68390567486102L129.68995535714285,37.691296504094055L130.24564732142858,37.506865281325126L130.4166294642857,37.506995861346894L130.50212053571428,37.41154186542218L130.63035714285715,37.466437706580535L131.0150669642857,37.55800041785608L131.0578125,37.534234853891235L131.48526785714287,37.53003017718976L131.57075892857142,37.39712583101712L132.08370535714286,37.92994455190805L132.12645089285715,37.92310215876653L132.16919642857144,37.78142283512995L132.34017857142857,37.85389474722055L132.51116071428572,37.88836787297175L132.76763392857143,37.68265210665189L133.49430803571428,37.428647848276L133.62254464285715,37.406553708589996L133.75078125,37.305145263671875L133.79352678571428,37.35502683199368L134.13549107142856,37.30211580716647L134.39196428571427,37.36333172137921L134.6484375,37.24040368887094L134.86216517857144,37.49913494403546L135.67433035714285,37.26777326143704L135.8453125,37.26986254178561L135.93080357142858,37.22146958571213L136.14453125,37.42232777522161L136.35825892857144,37.2808573796199L136.91395089285714,37.002565237192016L137.21316964285714,37.20295333862305L137.85435267857142,37.69025186391977L138.32455357142857,37.4251744196965L138.36729910714286,37.167670616736785L138.49553571428572,37.38054216825046L138.75200892857143,37.844728029691254L139.05122767857142,39.77934940044696L139.0939732142857,39.64354617779071L139.13671875,39.56603387685922L139.1794642857143,39.534120119535004L139.22220982142858,39.7095935528095L139.60691964285715,38.34364817692683L140.5900669642857,37.32368762676532L140.6328125,37.289789053109985L140.6755580357143,37.373752007117645L140.97477678571428,37.16986436110275L141.44497767857143,36.958115797776436L141.53046874999998,36.988070854773895L142.04341517857142,36.8206672668457L142.0861607142857,36.807060828575715L142.21439732142858,36.72748536330002L142.29988839285716,36.75835448044998L142.34263392857142,36.66592994103064L142.428125,36.66135964026819L143.24029017857143,36.798520895151L143.5822544642857,36.76885311420148L143.71049107142858,36.726989159217254L144.09520089285715,36.72855611947867L144.13794642857144,36.66023665208084L144.47991071428572,36.685543060302734L144.52265624999998,36.683871636023895L144.77912946428572,36.53550661527194L144.90736607142856,36.67961472731369L145.1638392857143,37.007997366098266L145.24933035714287,36.984649658203125L145.33482142857142,36.8294161283053L146.0614955357143,36.65112216656024L146.14698660714285,36.69329951359675L146.18973214285714,36.65039091843826L146.23247767857143,36.76357768132136L146.70267857142858,36.50411517803485L147.13013392857144,36.511244847224305L147.47209821428572,36.470399416410004L148.19877232142858,36.59787163367639L148.49799107142857,36.6533942589393L148.54073660714286,36.62957646296575L148.6689732142857,36.509704002967254L149.3529017857143,36.82343556330755L149.52388392857142,36.37113248384915L149.73761160714287,36.32127703153171L149.82310267857142,36.29970521193283L149.90859375,36.22652816772461L149.99408482142857,36.39437572772687L150.07957589285715,36.330913837139434L150.25055803571428,36.337886810302734L150.2933035714286,36.30398823664739L150.76350446428572,36.29247107872595L150.89174107142858,36.16442430936374L151.23370535714287,36.13036903968225L151.36194196428573,36.10801373995267L151.4046875,36.13206657996545L151.74665178571428,36.038858560415406L152.38783482142856,36.27635750403772L152.47332589285713,36.253923856295074L152.55881696428574,36.322739527775695L152.6443080357143,36.24546227088342L153.1145089285714,36.22874802809494L153.28549107142857,36.0015387901893L153.84118303571427,36.01595482459436L154.82433035714286,36.050793574406555L155.46551339285713,36.29719807551458L155.50825892857142,36.39479358379657L155.76473214285716,36.01493630042444L155.80747767857142,35.9708263690655L155.89296875,36.198270651010375L156.02120535714286,35.98317923912634L156.23493303571428,35.97766876220703L156.40591517857143,35.85722175011267L156.49140625,35.89796271690955L157.17533482142855,36.403072357177734L157.6455357142857,36.386175302358765L157.9447544642857,35.84400705190805L157.9875,36.29427308302658L158.28671875,36.24068304208609L158.41495535714287,36.34958678025467L159.4408482142857,35.753906836876496L159.56908482142856,36.00279235839844L159.86830357142856,35.83502314640925L159.99654017857142,35.945441612830535L160.0392857142857,35.99576715322641L160.1247767857143,36.29043403038611L160.16752232142855,35.753906836876496L160.46674107142857,36.27194389930139L161.0224330357143,36.06993660560022L161.2361607142857,35.87612973726712L161.6208705357143,35.66660103431116L161.70636160714287,35.6209241426908L161.79185267857142,35.604418827937195L162.09107142857144,35.8450778080867L162.64676339285714,35.81433927095853L162.7322544642857,36.02170034555289L162.98872767857142,35.61833865825946L163.3306919642857,35.46148593609149L163.58716517857144,35.434873727651734L163.6299107142857,35.360782623291016L163.84363839285714,35.49867512629583L164.05736607142856,35.4522669865535L164.35658482142856,35.64722295907828L164.69854910714284,35.318605276254516L164.86953125000002,35.36556185208835L165.04051339285715,35.510662372295684L165.59620535714285,35.24921505267804L165.68169642857143,35.168647179236785L165.7671875,35.20693324162409L165.89542410714284,35.20155334472656L166.1091517857143,35.095600715050324L166.83582589285714,35.591883145845856L167.04955357142856,35.291105123666625L167.8189732142857,35.68300188504733L167.98995535714283,35.078782008244445L168.1181919642857,35.08063624455378L168.33191964285714,35.04783454308142L168.63113839285717,35.31729947603665L168.8021205357143,35.3927747286283L168.88761160714284,35.30596513014572L169.14408482142858,35.14078140258789L169.18683035714284,34.97716463529147L169.44330357142857,35.02064778254583L169.74252232142857,35.093981522780204L169.9989955357143,35.04835686316858L170.12723214285717,35.131144596980164L170.38370535714284,35.017278817983765L170.85390625,35.02064778254583L170.93939732142857,34.98296238825872L171.36685267857143,34.95789102407602L171.4950892857143,35.040548177865844L171.58058035714285,35.3614616394043L171.7943080357143,34.981343195988586L172.47823660714286,34.73969180767352L172.56372767857144,34.91297149658203L172.82020089285717,35.00100854726938L172.9911830357143,35.57543006310095L173.07667410714285,35.47242854191706L173.67511160714284,35.26726121168869L174.1880580357143,34.914407876821656L174.40178571428572,34.98210056011493L174.91473214285713,34.56544582660382L174.95747767857145,34.52514883188101L175.21395089285713,34.53935593825119L175.25669642857144,34.61947983961838L175.85513392857143,34.62062894381009L176.0261160714286,34.633216857910156L176.11160714285714,34.58769666231595L176.19709821428572,34.92122415395883L176.32533482142858,34.56980719933142L176.45357142857145,34.50347254826472L176.83828125,34.657217465914215L177.09475446428573,34.86011270376352L177.1802455357143,34.63196328970102L177.65044642857143,34.64133893526517L177.69319196428572,34.37829853938177L177.94966517857145,34.55390255267804L178.24888392857144,34.385140932523285L179.27477678571427,34.4618436373197L179.53125,35.44268241295447L179.61674107142858,34.9146951528696L180.5143973214286,34.428389035738434L180.64263392857143,34.24528972919171L180.81361607142858,34.10974766657903L180.85636160714284,34.02570636455829L180.89910714285713,34.09431310800406L181.15558035714287,34.61728609525241L181.2838169642857,34.83548531165491L181.36930803571428,34.40911542452298L181.75401785714286,34.59372945932242L182.05323660714285,35.04710329495944L182.26696428571427,34.47871457613431L182.60892857142858,34.146727928748504L182.77991071428573,34.06751808753381L182.95089285714286,34.13552416287936L183.5065848214286,34.40770516028772L183.59207589285714,34.115754347581124L183.7203125,34.26534682053787L184.23325892857144,34.31475830078125L184.40424107142857,34.15991651094876L184.61796875,34.315463432898895L184.7034598214286,34.302039806659394L185.1309151785714,33.763736724853516L185.21640625,33.86765230618991L185.30189732142858,33.80513059175931L185.85758928571428,33.81701337374173L186.54151785714285,34.64005925105169L186.75524553571427,33.9099602332482L187.0544642857143,34.18942759587214L188.12310267857143,33.817091721754814L188.16584821428572,33.58557334313025L188.20859375,33.95114517211914L188.5078125,33.88575069720929L188.93526785714286,33.78990496121921L189.27723214285714,33.46332432673528L189.57645089285714,33.438096266526436L189.74743303571427,33.684265723595246L190.21763392857142,33.79922837477463L190.47410714285715,33.63686517568735L190.73058035714286,34.01544277484601L190.85881696428572,33.713698460505555L191.5,33.839786529541016L191.67098214285716,33.97882813673752L192.14118303571428,33.62197905320389L192.35491071428572,33.48536623441257L192.56863839285714,33.5310431260329L192.7396205357143,33.32673762394831L192.78236607142856,33.48912693903997L193.25256696428573,33.5379638671875L193.2953125,33.61500608004056L193.76551339285714,33.30323322002704L193.85100446428572,33.485757974477906L193.89375,33.4540792611929L194.19296875,33.117705125075126L194.27845982142856,33.26640965388372L194.32120535714287,33.390460674579316L194.36395089285713,33.25679896428034L194.40669642857142,33.24771059476413L194.66316964285716,33.32232401921198L195.60357142857143,33.297095959003144L196.33024553571428,33.2920294541579L196.5439732142857,33.20443637554462L196.58671875000002,33.030738830566406L196.67220982142857,32.99561280470627L197.01417410714288,33.19560916607196L197.5271205357143,33.09743910569412L199.49341517857144,32.883052825927734L200.09185267857143,33.58878561166617L200.1345982142857,33.29221226618841L200.60479910714284,32.91791769174429L200.64754464285716,32.768455798809356L200.7330357142857,32.72755813598633L200.81852678571428,32.67874732384314L200.94676339285715,32.49794622567984L200.98950892857144,32.6431512099046L201.07500000000002,32.71207134540265L202.05814732142858,32.547540517953735L202.27187500000002,32.55929271991437L202.40011160714283,32.56096414419321L202.5283482142857,32.76338929396408L202.74207589285714,32.72126417893631L203.2122767857143,33.22519859900842L203.59698660714284,32.638659257155204L203.7252232142857,32.63006709172175L203.76796875000002,32.50807923537033L204.15267857142857,32.53508318387546L204.4091517857143,32.36976887629583L205.09308035714284,32.75048798781174L205.34955357142857,32.412599123441254L205.5205357142857,32.4593728872446L205.9052455357143,32.49246186476486L205.99073660714285,32.20291372445914L206.37544642857142,32.15290157611554L206.54642857142858,32.35994925865759L206.80290178571428,32.33456450242264L207.0166294642857,32.70582962036133L207.27310267857143,32.50901941152719L207.65781249999998,32.70846733680139L207.95703124999997,32.36135952289288L208.12801339285716,32.11649586604192L208.5127232142857,32.231824141282296L209.15390624999998,32.170921619121856L209.453125,31.975338862492492L209.58136160714284,31.94564496553861L209.66685267857144,32.07860154371994L209.7095982142857,32.44730729323166L209.88058035714286,32.61337896493765L209.92332589285715,32.641767061673676L210.47901785714285,32.00448432335486L210.73549107142858,31.9465067936824L210.77823660714284,31.896677457369293L210.86372767857142,31.860532907339238L211.12020089285713,31.73366135817307L211.2484375,31.709269010103668L212.4025669642857,31.754789205697872L212.65904017857144,31.69122285109299L212.83002232142857,31.683753673846898L212.95825892857144,31.58158786480243L213.30022321428572,31.972100477952214L213.3857142857143,32.45898114717923L213.94140625,31.702165456918575L214.11238839285713,31.931934063251195L214.15513392857144,31.844001476581273L214.96729910714285,31.857007246751042L215.01004464285714,31.716450911301823L215.13828125,31.658708425668575L215.4375,31.427268395057094L215.52299107142858,31.431316375732422L215.86495535714286,31.50352712777945L215.95044642857144,31.368037297175476L215.99319196428573,31.443381969745335L216.54888392857143,31.211289039024937L216.634375,31.426719958965602L217.06183035714287,32.814576662503754L217.1900669642857,31.85896594707782L217.66026785714286,31.73154596182016L217.78850446428572,31.61368443415716L217.87399553571427,31.3729993380033L217.95948660714285,31.186087094820465L218.47243303571426,31.054488548865688L219.19910714285714,31.682709033672634L219.84029017857145,31.04694102360651L220.09676339285713,30.754650702843296L220.39598214285712,31.443094693697418L220.65245535714286,31.504284491905796L220.73794642857143,31.219567812406098L220.9089285714286,30.762224344106816L221.20814732142858,31.22340686504657L221.25089285714287,31.16132912269006L221.29363839285713,30.97580102773813L221.72109375,31.33204944317157L222.61875,31.18057661790115L222.83247767857142,31.012076157789974L223.04620535714287,31.44246790959284L223.30267857142857,31.05135462834284L223.7301339285714,30.822160574106075L223.94386160714285,30.55047578078049L224.20033482142858,31.090659214900086L224.3713169642857,31.01547123835638L224.4140625,31.1287102332482L224.75602678571428,30.881052163931034L224.88426339285715,30.65172752967248L224.9270089285714,30.616679851825413L225.0125,30.48722281822791L225.14073660714286,30.572622152475216L225.18348214285714,30.521878756009613L225.2262276785714,30.55374028132513L225.52544642857143,30.379964388333832L225.65368303571427,30.85812231210562L225.69642857142858,30.981468200683594L225.73917410714287,31.118968963623047L225.78191964285713,31.146573580228363L225.8674107142857,31.30998141948993L225.99564732142858,31.556673196645878L226.03839285714287,31.642203110914974L226.2948660714286,30.60970687866211L226.55133928571428,30.445959531343902L226.63683035714286,30.35706065251276L226.76506696428572,30.33366071260892L227.61997767857142,30.64491125253531L227.70546875,30.43585263765775L227.96194196428573,30.958486116849457L228.26116071428572,31.10387391310471L228.77410714285713,30.613284771259007L229.32979910714286,30.295923086313106L229.58627232142857,29.98383683424729L229.67176339285714,30.064456939697266L230.35569196428574,30.494691995474003L230.48392857142855,30.850052466759312L230.56941964285716,30.541126251220703L230.61216517857142,31.13134794968826L231.42433035714288,30.29184898963342L231.80904017857142,30.19127625685471L232.4502232142857,29.979997781606816L232.57845982142857,30.195376469538758L233.1341517857143,29.968637319711544L233.47611607142855,30.1891608605018L233.81808035714286,29.83902359008789L233.86082589285715,29.886998690091644L233.98906250000002,29.911364922156704L234.07455357142857,30.07247455303485L234.11729910714288,29.786582653339085L234.71573660714287,29.779844724214996L235.05770089285716,30.10733941885141L235.69888392857143,29.61842170128455L235.99810267857143,29.546367645263672L236.25457589285716,29.835941901573765L236.3828125,30.35504972017728L236.68203125000002,30.050641573392426L237.2377232142857,29.65944994412936L237.3232142857143,29.612702296330383L237.36595982142856,29.687838040865387L237.40870535714288,29.46091607900766L237.66517857142856,29.851219764122593L238.4345982142857,29.15987689678485L239.1185267857143,30.27933942354642L239.4177455357143,29.348460564246547L239.6314732142857,29.45890514667218L239.67421875000002,29.591339404766384L239.9306919642857,29.410799466646637L240.3154017857143,28.964685880220856L240.48638392857143,29.798439319317165L240.571875,29.269929739145137L240.8283482142857,29.03342320368841L240.95658482142858,29.11127501267654L241.93973214285717,29.000673734224762L242.15345982142856,28.856382810152496L242.70915178571428,29.557075207050023L242.88013392857144,29.29314686701849L243.0083705357143,29.17826256385217L243.64955357142858,29.237963749812195L243.99151785714284,28.745598719670227L244.1625,28.995790041410004L244.20524553571428,29.096441122201778L244.97466517857143,28.653696500338043L245.1029017857143,28.50794308002179L245.14564732142858,28.57861298781174L245.23113839285716,28.63238584078275L245.3166294642857,28.895739628718445L245.35937499999997,28.699007767897395L245.53035714285716,28.966670696551976L245.57310267857144,28.9719983614408L246.04330357142857,28.6806743328388L246.2997767857143,28.593316298264714L246.47075892857143,28.48015565138596L247.45390625,28.494911193847656L248.00959821428572,28.523534334622894L248.3515625,29.404505509596614L248.6080357142857,28.592010498046875L248.6935267857143,28.47093670184796L248.73627232142857,28.55751125629132L249.16372767857143,28.255975869985722L249.20647321428572,28.4913071852464L249.84765625,28.208288046029903L249.97589285714284,28.092228522667515L250.44609375,28.76463728684646L250.4888392857143,28.94308794461764L250.61707589285712,28.557615720308746L251.04453124999998,28.539674025315495L251.34375,28.238922119140625L251.51473214285713,27.907274979811458L251.6857142857143,27.75426131028396L252.07042410714286,27.92989143958459L252.2841517857143,27.82584527822641L252.36964285714285,28.034303225003754L252.45513392857143,28.231061201829167L252.83984375,28.83964245135968L253.05357142857144,28.15012770432693L253.26729910714286,27.924407078669617L253.86573660714285,28.365349696232727L253.90848214285714,28.407997131347656L253.99397321428572,28.108368213360134L254.20770089285713,28.017824026254512L254.5924107142857,28.042608114389278L254.84888392857144,27.954309903658356L255.40457589285714,28.016570458045376L255.7892857142857,28.132003197303188L255.87477678571426,27.96261479304388L256.04575892857144,27.76097312340369L256.08850446428573,27.829997722919163L256.25948660714283,27.52577238816482L256.51595982142857,27.662959759051976L256.77243303571424,27.454240652231075L256.98616071428575,27.38534663273737L257.11439732142856,27.245834937462437L257.19988839285713,27.871339357816254L257.67008928571425,28.516770289494445L257.84107142857147,28.58916385357196L258.22578125,28.58994733370267L258.3967633928571,27.924172034630406L258.56774553571427,27.39375598614032L258.7814732142857,27.181981306809636L258.99520089285716,27.040145287146938L259.2944196428571,27.49153430645282L259.50814732142857,27.085796062762913L259.59363839285714,27.240063300499546L259.6791294642857,27.69529137244592L259.721875,27.9003803546612L260.1065848214286,27.35144805908203L260.14933035714284,27.75653340266302L260.19207589285713,27.391222733717708L260.44854910714287,27.197807605449977L260.9614955357143,26.893112182617188L261.1752232142857,27.52885407667893L261.5171875,27.178011674147395L261.6026785714286,26.961588346041168L262.0301339285714,26.853415855994594L262.115625,26.981305929330684L262.7568080357143,27.076655461237976L263.2270089285714,26.875927851750305L263.3125,27.07028315617487L263.48348214285716,26.759737748366145L263.56897321428573,26.963364234337437L263.99642857142857,27.04095488328201L264.12466517857143,26.76637121347281L264.46662946428575,27.344135577862087L265.02232142857144,26.900946983924282L265.1078125,27.098827948937046L265.57801339285714,26.47005902803861L265.87723214285717,26.374735612135677L266.00546875,26.527670933650086L266.17645089285713,26.65381123469427L266.7748883928571,26.39207663902869L267.2450892857143,26.39502774752103L267.54430803571427,26.28244165273813L267.8435267857143,26.763837961050175L268.2709821428571,26.399780860314L268.39921875,26.704241239107574L268.57020089285714,26.383327777569118L268.61294642857143,26.436238802396332L268.8266741071429,26.44752091627854L269.08314732142856,26.62584099402795L269.16863839285713,26.261444385235134L269.59609375,26.096547933725216L269.63883928571425,25.84638272798978L270.36551339285717,26.133893819955684L270.49375000000003,26.010782975416927L270.7074776785714,26.009607755220856L270.79296875,26.126842498779297L271.2204241071429,25.80556341317984L271.3059151785714,25.7887708223783L271.8188616071429,26.038936028113735L271.9470982142857,25.978634174053493L272.03258928571427,25.86307085477389L272.3318080357143,26.298372415395878L272.7592633928571,27.91098345243014L273.10122767857143,26.980104593130253L273.18671875,26.504741081824672L273.2722098214286,26.41432747474084L273.4004464285714,26.01362961989182L273.48593750000003,26.374343872070312L273.8706473214286,25.773989163912262L274.2981026785714,25.486974276029144L274.3408482142857,25.627217219426086L274.6828125,26.041390932523285L274.7683035714286,25.676001915564907L274.9392857142857,25.342631119948177L274.98203125000003,25.280501145582942L275.06752232142856,25.544246673583984L275.7941964285714,25.475639930138218L276.00792410714286,25.69052241398737L276.09341517857143,25.756726485032292L276.1361607142857,25.523667262150695L276.2643973214286,25.318578279935394L276.64910714285713,25.15308116032526L277.4185267857143,26.2453830425556L277.8032366071428,25.6761847275954" style="fill: none;" fill="none"></path></g></g></g></g></g></g><g transform="translate(30, 178)" clip-path="url(#clip_1)"><clipPath id="clip_1"><rect width="299" height="22"></rect></clipPath><g><g><line x1="0" y1="0" x2="0" y2="5" style="visibility: inherit;" fill="rgb(0, 0, 0)" stroke="rgb(204, 204, 204)" stroke-width="1px"></line><line x1="21.372767857142858" y1="0" x2="21.372767857142858" y2="5" style="visibility: inherit;" fill="rgb(0, 0, 0)" stroke="rgb(204, 204, 204)" stroke-width="1px"></line><line x1="42.745535714285715" y1="0" x2="42.745535714285715" y2="5" style="visibility: inherit;" fill="rgb(0, 0, 0)" stroke="rgb(204, 204, 204)" stroke-width="1px"></line><line x1="64.11830357142857" y1="0" x2="64.11830357142857" y2="5" style="visibility: inherit;" fill="rgb(0, 0, 0)" stroke="rgb(204, 204, 204)" stroke-width="1px"></line><line x1="85.49107142857143" y1="0" x2="85.49107142857143" y2="5" style="visibility: inherit;" fill="rgb(0, 0, 0)" stroke="rgb(204, 204, 204)" stroke-width="1px"></line><line x1="106.86383928571429" y1="0" x2="106.86383928571429" y2="5" style="visibility: inherit;" fill="rgb(0, 0, 0)" stroke="rgb(204, 204, 204)" stroke-width="1px"></line><line x1="128.23660714285714" y1="0" x2="128.23660714285714" y2="5" style="visibility: inherit;" fill="rgb(0, 0, 0)" stroke="rgb(204, 204, 204)" stroke-width="1px"></line><line x1="149.609375" y1="0" x2="149.609375" y2="5" style="visibility: inherit;" fill="rgb(0, 0, 0)" stroke="rgb(204, 204, 204)" stroke-width="1px"></line><line x1="170.98214285714286" y1="0" x2="170.98214285714286" y2="5" style="visibility: inherit;" fill="rgb(0, 0, 0)" stroke="rgb(204, 204, 204)" stroke-width="1px"></line><line x1="192.35491071428572" y1="0" x2="192.35491071428572" y2="5" style="visibility: inherit;" fill="rgb(0, 0, 0)" stroke="rgb(204, 204, 204)" stroke-width="1px"></line><line x1="213.72767857142858" y1="0" x2="213.72767857142858" y2="5" style="visibility: inherit;" fill="rgb(0, 0, 0)" stroke="rgb(204, 204, 204)" stroke-width="1px"></line><line x1="235.10044642857142" y1="0" x2="235.10044642857142" y2="5" style="visibility: inherit;" fill="rgb(0, 0, 0)" stroke="rgb(204, 204, 204)" stroke-width="1px"></line><line x1="256.4732142857143" y1="0" x2="256.4732142857143" y2="5" style="visibility: inherit;" fill="rgb(0, 0, 0)" stroke="rgb(204, 204, 204)" stroke-width="1px"></line><line x1="277.84598214285717" y1="0" x2="277.84598214285717" y2="5" style="visibility: inherit;" fill="rgb(0, 0, 0)" stroke="rgb(204, 204, 204)" stroke-width="1px"></line><line x1="299.21875" y1="0" x2="299.21875" y2="5" style="visibility: inherit;" fill="rgb(0, 0, 0)" stroke="rgb(204, 204, 204)" stroke-width="1px"></line></g><g transform="translate(0, 8)"><text x="0" y="0" dx="0em" dy="0.95em" style="text-anchor: middle; visibility: hidden; font-family: Roboto, sans-serif; font-size: 12px; font-weight: 200;" fill="rgb(50, 49, 63)" stroke="none" stroke-width="1px">-500</text><text x="21.372767857142858" y="0" dx="0em" dy="0.95em" style="text-anchor: middle; visibility: inherit; font-family: Roboto, sans-serif; font-size: 12px; font-weight: 200;" fill="rgb(50, 49, 63)" stroke="none" stroke-width="1px">0</text><text x="42.745535714285715" y="0" dx="0em" dy="0.95em" style="text-anchor: middle; visibility: hidden; font-family: Roboto, sans-serif; font-size: 12px; font-weight: 200;" fill="rgb(50, 49, 63)" stroke="none" stroke-width="1px">500</text><text x="64.11830357142857" y="0" dx="0em" dy="0.95em" style="text-anchor: middle; visibility: inherit; font-family: Roboto, sans-serif; font-size: 12px; font-weight: 200;" fill="rgb(50, 49, 63)" stroke="none" stroke-width="1px">1k</text><text x="85.49107142857143" y="0" dx="0em" dy="0.95em" style="text-anchor: middle; visibility: hidden; font-family: Roboto, sans-serif; font-size: 12px; font-weight: 200;" fill="rgb(50, 49, 63)" stroke="none" stroke-width="1px">1.5k</text><text x="106.86383928571429" y="0" dx="0em" dy="0.95em" style="text-anchor: middle; visibility: inherit; font-family: Roboto, sans-serif; font-size: 12px; font-weight: 200;" fill="rgb(50, 49, 63)" stroke="none" stroke-width="1px">2k</text><text x="128.23660714285714" y="0" dx="0em" dy="0.95em" style="text-anchor: middle; visibility: hidden; font-family: Roboto, sans-serif; font-size: 12px; font-weight: 200;" fill="rgb(50, 49, 63)" stroke="none" stroke-width="1px">2.5k</text><text x="149.609375" y="0" dx="0em" dy="0.95em" style="text-anchor: middle; visibility: inherit; font-family: Roboto, sans-serif; font-size: 12px; font-weight: 200;" fill="rgb(50, 49, 63)" stroke="none" stroke-width="1px">3k</text><text x="170.98214285714286" y="0" dx="0em" dy="0.95em" style="text-anchor: middle; visibility: hidden; font-family: Roboto, sans-serif; font-size: 12px; font-weight: 200;" fill="rgb(50, 49, 63)" stroke="none" stroke-width="1px">3.5k</text><text x="192.35491071428572" y="0" dx="0em" dy="0.95em" style="text-anchor: middle; visibility: inherit; font-family: Roboto, sans-serif; font-size: 12px; font-weight: 200;" fill="rgb(50, 49, 63)" stroke="none" stroke-width="1px">4k</text><text x="213.72767857142858" y="0" dx="0em" dy="0.95em" style="text-anchor: middle; visibility: hidden; font-family: Roboto, sans-serif; font-size: 12px; font-weight: 200;" fill="rgb(50, 49, 63)" stroke="none" stroke-width="1px">4.5k</text><text x="235.10044642857142" y="0" dx="0em" dy="0.95em" style="text-anchor: middle; visibility: inherit; font-family: Roboto, sans-serif; font-size: 12px; font-weight: 200;" fill="rgb(50, 49, 63)" stroke="none" stroke-width="1px">5k</text><text x="256.4732142857143" y="0" dx="0em" dy="0.95em" style="text-anchor: middle; visibility: hidden; font-family: Roboto, sans-serif; font-size: 12px; font-weight: 200;" fill="rgb(50, 49, 63)" stroke="none" stroke-width="1px">5.5k</text><text x="277.84598214285717" y="0" dx="0em" dy="0.95em" style="text-anchor: middle; visibility: inherit; font-family: Roboto, sans-serif; font-size: 12px; font-weight: 200;" fill="rgb(50, 49, 63)" stroke="none" stroke-width="1px">6k</text><text x="299.21875" y="0" dx="0em" dy="0.95em" style="text-anchor: middle; visibility: hidden; font-family: Roboto, sans-serif; font-size: 12px; font-weight: 200;" fill="rgb(50, 49, 63)" stroke="none" stroke-width="1px">6.5k</text></g><line x1="0" y1="0" x2="299.21875" y2="0" fill="rgb(0, 0, 0)" stroke="rgb(204, 204, 204)" stroke-width="1px"></line></g></g></g></g></svg>